<svg width="117" height="90" viewBox="0 0 117 90" fill="none" xmlns="http://www.w3.org/2000/svg">
<path d="M108.644 9.59055V69.0565H7.82666V9.59055C7.82974 7.92854 8.53017 6.33543 9.77453 5.1602C11.0189 3.98498 12.7057 3.32346 14.4655 3.32056H102.005C103.765 3.32346 105.451 3.98498 106.696 5.1602C107.94 6.33543 108.641 7.92854 108.644 9.59055Z" fill="#759AD9"/>
<path d="M114.141 71.9165H2.32958C2.10007 71.9162 1.87275 71.9587 1.66065 72.0415C1.44854 72.1243 1.25583 72.2459 1.09354 72.3991C0.931249 72.5524 0.802572 72.7344 0.714883 72.9347C0.627193 73.135 0.582214 73.3497 0.582521 73.5665V76.0525C0.588676 78.8689 1.77603 81.5682 3.88468 83.5597C5.99333 85.5512 8.85151 86.6726 11.8336 86.6784H104.637C107.619 86.6726 110.478 85.5512 112.586 83.5597C114.695 81.5682 115.882 78.8689 115.888 76.0525V73.5665C115.889 73.3497 115.844 73.135 115.756 72.9347C115.668 72.7344 115.54 72.5524 115.377 72.3991C115.215 72.2459 115.022 72.1243 114.81 72.0415C114.598 71.9587 114.371 71.9162 114.141 71.9165ZM61.5968 80.9364H54.8695C54.4061 80.9364 53.9618 80.7626 53.6341 80.4532C53.3065 80.1437 53.1224 79.7241 53.1224 79.2864C53.1224 78.8488 53.3065 78.4292 53.6341 78.1197C53.9618 77.8103 54.4061 77.6365 54.8695 77.6365H61.5968C62.0602 77.6365 62.5045 77.8103 62.8322 78.1197C63.1598 78.4292 63.3439 78.8488 63.3439 79.2864C63.3439 79.7241 63.1598 80.1437 62.8322 80.4532C62.5045 80.7626 62.0602 80.9364 61.5968 80.9364Z" fill="#759AD9"/>
</svg>
