<svg width="120" height="77" viewBox="0 0 120 77" fill="none" xmlns="http://www.w3.org/2000/svg">
<path d="M114.012 46.0228C112.119 49.0908 107.599 53.6043 97.5447 57.8261C97.3513 57.906 95.1913 58.8477 94.5226 57.1234C93.7862 55.2303 94.9429 54.0063 95.7252 53.6809C105.586 49.5419 106.547 45.3538 107.995 43.3933C106.378 37.1373 102.184 17.7557 76.951 9.86746V46.0231C76.951 51.0977 72.8212 55.2278 67.7462 55.2278H52.4055C47.3308 55.2278 43.2008 51.098 43.2008 46.0231V9.73206C21.751 15.8716 14.1881 35.327 12.0496 43.7521C12.1324 43.8441 12.2244 43.9301 12.2828 44.0434C12.2921 44.062 12.3993 44.2491 12.6143 44.5497C13.7004 46.0776 17.8057 50.9068 29.0106 55.6134C29.7929 55.9388 30.7596 57.304 29.8266 59.2584C28.771 61.4642 27.142 60.8171 26.9488 60.7372C16.8114 56.4817 12.0772 51.5264 10.0401 49.0965H0.246582V55.6163C0.246582 55.6163 5.64048 60.2585 14.8205 65.1862C16.9128 66.3092 19.1864 67.4383 21.6595 68.5394C22.4941 68.9107 23.3501 69.279 24.2276 69.6413C33.6467 73.5194 45.3489 76.7042 58.5422 76.7042C71.7569 76.7042 88.0028 72.1417 97.4283 68.6841C98.3578 68.3434 99.2722 67.9965 100.156 67.6471C103.197 66.4382 105.243 65.1865 107.698 63.9685C115.902 59.894 119.909 56.2491 119.909 56.2491V46.0228H114.012Z" fill="#759AD9"/>
<path d="M52.4064 49.0909H67.7472C69.4406 49.0909 70.8152 47.7164 70.8152 46.0229V8.28706V3.06802C70.8152 1.37455 69.4406 0 67.7472 0H52.4064C50.7129 0 49.3384 1.37455 49.3384 3.06802V8.74107V46.0226C49.3384 47.7164 50.7129 49.0909 52.4064 49.0909Z" fill="#759AD9"/>
</svg>
