<svg width="116" height="107" viewBox="0 0 116 107" fill="none" xmlns="http://www.w3.org/2000/svg">
<path d="M92.6987 39.0786C93.9828 39.0786 95.2223 39.2742 96.3888 39.6364L107.018 29.007L102.064 24.053L87.0386 39.0786H92.6987Z" fill="#759AD9"/>
<path d="M114.176 36.1642L111.424 33.4128L101.798 43.0389C103.881 45.2671 105.16 48.2561 105.16 51.5398V53.9908L114.176 44.9753C116.609 42.5423 116.609 38.5974 114.176 36.1642Z" fill="#759AD9"/>
<path d="M97.6585 19.6478L79.8357 1.8249C77.4025 -0.608301 73.4575 -0.608301 71.0245 1.8249L33.7705 39.0789H78.2274L97.6585 19.6478Z" fill="#759AD9"/>
<path d="M89.9193 43.5H6.74726C3.02075 43.5 0 46.3721 0 49.9152V99.9181C0 103.461 3.02075 106.333 6.74726 106.333H89.9193C93.6456 106.333 96.6666 103.461 96.6666 99.9181V49.9152C96.6666 46.3721 93.6456 43.5 89.9193 43.5Z" fill="#759AD9"/>
</svg>
