<svg width="116" height="98" viewBox="0 0 116 98" fill="none" xmlns="http://www.w3.org/2000/svg">
<path d="M106.333 15.1667H82.1667V10.3332C82.1667 5.00195 77.8315 0.666443 72.5 0.666443H43.5C38.1688 0.666443 33.8333 5.00172 33.8333 10.3332V15.1665H9.66674C4.33527 15.1667 0 19.502 0 24.8332V39.3332C0 44.6647 4.33527 49 9.66674 49H48.3335V46.5833C48.3335 45.2474 49.4144 44.1665 50.7502 44.1665H65.2502C66.586 44.1665 67.667 45.2474 67.667 46.5833V49H106.334C111.665 49 116 44.6647 116 39.3332V24.8332C116 19.502 111.665 15.1667 106.333 15.1667ZM72.5 15.1667H43.5V10.3332H72.5V15.1667Z" fill="#759AD9"/>
<path d="M114.659 51.6076C113.836 51.1993 112.852 51.2938 112.125 51.8459C110.407 53.1464 108.405 53.8331 106.333 53.8331H67.6667V61.0831C67.6667 62.4189 66.5858 63.4999 65.25 63.4999H50.75C49.4142 63.4999 48.3333 62.4189 48.3333 61.0831V53.8331H9.66674C7.5946 53.8331 5.59338 53.1464 3.87512 51.8459C3.14582 51.289 2.16412 51.1946 1.34034 51.6076C0.519281 52.0161 0 52.8537 0 53.7719V87.6666C0 92.9979 4.33527 97.3334 9.66674 97.3334H106.333C111.665 97.3334 116 92.9981 116 87.6666V53.7719C116 52.8537 115.481 52.0161 114.659 51.6076Z" fill="#759AD9"/>
</svg>
