<svg width="116" height="116" viewBox="0 0 116 116" fill="none" xmlns="http://www.w3.org/2000/svg">
<path d="M115.968 56.7822C111.219 49.6316 105.03 43.5502 97.7977 38.9265C98.671 34.9942 97.5845 30.8826 94.8827 27.8951C92.1808 24.9076 88.1986 23.4148 84.1987 23.89C83.1169 16.6779 80.7728 9.71297 77.2739 3.31445C100.028 11.3667 115.432 32.6513 115.968 56.7822Z" fill="#759AD9"/>
<path d="M22.7983 91.0972C18.2786 91.1244 13.772 90.6083 9.37541 89.5602C8.37146 88.0177 7.44001 86.4296 6.58105 84.7959C7.74179 74.0613 11.9059 63.8715 18.5953 55.3962C19.8779 56.2287 21.307 56.81 22.8065 57.1092C22.9457 65.3577 24.7421 73.4939 28.0887 81.0342C24.766 83.3041 22.7844 87.0732 22.7983 91.0972Z" fill="#759AD9"/>
<path d="M67.1359 0.725342C68.5859 0.957342 70.0214 1.25148 71.4362 1.58913C76.0359 8.6856 79.0227 16.7048 80.1859 25.0812C77.998 26.1609 76.174 27.8574 74.9389 29.9615C61.0939 27.4968 46.8223 29.8354 34.488 36.5901C33.563 35.565 32.472 34.7029 31.2607 34.0401C37.7466 18.2058 50.8655 6.02322 67.1359 0.725342Z" fill="#759AD9"/>
<path d="M28.3788 37.2362C32.6272 38.9359 34.6935 43.7576 32.9942 48.0061C31.2949 52.2547 26.4734 54.3214 22.2247 52.6225C17.976 50.9236 15.9088 46.1023 17.6074 41.8534C19.3117 37.6087 24.1294 35.5435 28.3788 37.2362Z" fill="#759AD9"/>
<path d="M35.2145 82.8572C39.3995 82.8407 42.9399 85.9476 43.467 90.0994C43.9941 94.2511 41.3424 98.1441 37.2859 99.1738C34.1814 99.9619 30.9008 98.8901 28.8603 96.4212C26.8199 93.9522 26.3853 90.5284 27.744 87.6279C29.1028 84.7275 32.0115 82.8699 35.2145 82.8572Z" fill="#759AD9"/>
<path d="M46.5362 86.0386C44.0152 80.4217 37.7413 77.5207 31.829 79.2381C28.7651 72.2974 27.1064 64.8185 26.9487 57.2333C30.7927 56.7249 34.1778 54.4481 36.0981 51.0795C38.0184 47.711 38.253 43.6382 36.7321 40.0715C47.9573 34.0055 60.8792 31.8393 73.4689 33.9131C72.4862 38.9624 74.7421 44.091 79.1281 46.7788C74.9496 64.2162 62.9069 78.7227 46.5362 86.0386Z" fill="#759AD9"/>
<path d="M79.1575 41.3434C77.6691 39.4422 77.0805 36.9879 77.545 34.6184C78.0094 32.2489 79.4809 30.1983 81.5769 28.9997C83.1106 28.1159 84.8926 27.7614 86.6478 27.9909C91.1918 28.531 94.4377 32.6524 93.8977 37.1964C93.588 40.0938 91.7446 42.6011 89.0713 43.7608C85.6054 45.345 81.5052 44.3452 79.1575 41.3434Z" fill="#759AD9"/>
<path d="M57.8799 0C44.0224 6.75661 33.1479 18.3924 27.3429 32.6747C22.2946 31.8489 17.256 34.2006 14.6466 38.6004C12.0372 43.0002 12.3901 48.5494 15.5358 52.5832C9.63408 59.9902 5.5225 68.66 3.52147 77.9168C-2.94093 60.1496 -0.349242 40.3487 10.4681 24.8432C21.2855 9.33772 38.9741 0.0691035 57.8799 0V0Z" fill="#759AD9"/>
<path d="M12.958 94.4907C16.4402 95.0633 19.967 95.3191 23.4954 95.2551C24.7795 98.9488 27.7361 101.817 31.4672 102.988C35.1983 104.159 39.2636 103.495 42.4282 101.198C49.3627 107.701 57.689 112.537 66.7738 115.337C46.4037 118.459 25.9096 110.52 12.958 94.4907Z" fill="#759AD9"/>
<path d="M75.7993 113.195C64.4027 111.35 53.8119 106.158 45.3721 98.2807C47.0541 95.9009 47.838 93.0018 47.5844 90.0986C65.2405 82.4496 78.3326 67.0209 83.0058 48.3552C88.1285 49.4881 93.4091 47.2686 96.1842 42.8162C104.399 48.2143 111.097 55.6238 115.641 64.3404C113.108 87.0368 97.5222 106.148 75.7993 113.195Z" fill="#759AD9"/>
</svg>
