<svg width="411" height="440" viewBox="0 0 411 440" fill="none" xmlns="http://www.w3.org/2000/svg">
<path d="M10 125.869C10 70.6401 54.7715 25.8685 110 25.8685H360.444C388.058 25.8685 410.444 48.2543 410.444 75.8685V439.764H10V125.869Z" fill="#E3F3FE"/>
<line x1="141.896" y1="81.7444" x2="141.896" y2="346.638" stroke="#C7E2F4"/>
<line x1="167.816" y1="81.7445" x2="167.816" y2="346.638" stroke="#C7E2F4"/>
<line x1="193.737" y1="81.7445" x2="193.737" y2="346.638" stroke="#C7E2F4"/>
<line x1="219.657" y1="81.7445" x2="219.657" y2="346.638" stroke="#C7E2F4"/>
<line x1="245.577" y1="81.7445" x2="245.577" y2="346.638" stroke="#C7E2F4"/>
<line x1="271.498" y1="81.7445" x2="271.498" y2="346.638" stroke="#C7E2F4"/>
<line x1="297.418" y1="81.7445" x2="297.418" y2="346.638" stroke="#C7E2F4"/>
<line x1="323.339" y1="81.7445" x2="323.339" y2="346.638" stroke="#C7E2F4"/>
<line x1="349.259" y1="81.7445" x2="349.259" y2="346.638" stroke="#C7E2F4"/>
<line x1="375.179" y1="81.7445" x2="375.179" y2="346.638" stroke="#C7E2F4"/>
<line x1="389.22" y1="95.2046" x2="127.803" y2="95.2046" stroke="#C7E2F4"/>
<line x1="389.22" y1="121.125" x2="127.804" y2="121.125" stroke="#C7E2F4"/>
<line x1="389.22" y1="147.045" x2="127.804" y2="147.045" stroke="#C7E2F4"/>
<line x1="389.22" y1="172.966" x2="127.804" y2="172.966" stroke="#C7E2F4"/>
<line x1="389.22" y1="198.886" x2="127.804" y2="198.886" stroke="#C7E2F4"/>
<line x1="389.22" y1="224.806" x2="127.804" y2="224.806" stroke="#C7E2F4"/>
<line x1="389.22" y1="250.727" x2="127.804" y2="250.727" stroke="#C7E2F4"/>
<line x1="389.22" y1="276.647" x2="127.804" y2="276.647" stroke="#C7E2F4"/>
<line x1="389.22" y1="302.567" x2="127.804" y2="302.567" stroke="#C7E2F4"/>
<line x1="389.22" y1="328.488" x2="127.804" y2="328.488" stroke="#C7E2F4"/>
<path d="M119.085 319.324V343.537H126V353H100V343.537H107.053V319.324H100V310H126V319.324H119.085Z" fill="#173A86"/>
<path d="M132 331.638C132 318.421 142.218 309 156.125 309C164.215 309 170.743 311.953 175 317.155L167.053 324.185C164.356 320.951 160.95 319.124 156.693 319.124C149.455 319.124 144.488 324.045 144.488 331.497C144.488 338.949 149.455 343.87 156.693 343.87C160.95 343.87 164.215 342.042 167.053 338.808L175 345.839C170.743 351.182 164.215 353.994 156.125 353.994C142.218 354.275 132 344.854 132 331.638Z" fill="#173A86"/>
<path d="M179 331.5C179 318.503 189.398 309 203.5 309C217.602 309 228 318.503 228 331.5C228 344.497 217.602 354 203.5 354C189.398 354 179 344.497 179 331.5ZM215.323 331.5C215.323 324.093 210.052 319.202 203.358 319.202C196.663 319.202 191.535 324.093 191.535 331.5C191.535 338.907 196.805 343.798 203.358 343.798C210.195 343.938 215.323 339.047 215.323 331.5Z" fill="#173A86"/>
<path d="M233 349.109L237.143 340.165C241 342.68 246.571 344.357 251.714 344.357C256.857 344.357 258.857 342.96 258.857 340.863C258.857 334.016 233.714 339.047 233.714 322.975C233.714 315.289 240.143 309 253.286 309C259 309 265 310.258 269.286 312.773L265.429 321.857C261.143 319.621 257 318.503 253.143 318.503C247.857 318.503 246 320.18 246 322.416C246 328.984 271 324.093 271 340.025C271 347.571 264.571 354 251.429 354C244.286 353.86 237.143 351.904 233 349.109Z" fill="#173A86"/>
<path d="M321 310V353H308.867V336.162H292.133V353H280V310H292.133V326.142H308.867V310H321Z" fill="#173A86"/>
<path d="M170.548 237.97C172.442 237.707 174.54 237.176 176.368 236.443C176.605 236.41 176.841 236.377 177.111 236.58C195.794 251.249 216.837 260.317 226.012 263.839C240.428 252.968 290.001 212.044 283.669 166.411C281.156 148.299 264.202 139.143 249.763 141.147C243.845 141.968 238.629 144.37 234.523 147.817C234.319 148.085 233.845 148.151 233.543 147.713C231.29 145.388 227.919 143.699 223.634 142.375C222.891 142.238 222.083 141.631 221.512 140.991C220.1 139.509 218.688 138.027 217.276 136.544C217.006 136.342 216.941 135.872 217.145 135.603C224.72 127.6 235.055 122.09 246.89 120.447C280.504 115.783 302.069 135.567 305.855 162.853C315.386 231.538 239.896 278.695 234.639 282.541C232.876 283.745 231.047 284.478 228.917 284.774C226.786 285.069 224.827 284.862 222.803 284.184C216.697 281.914 194.569 273.716 172.947 258.735C163.585 252.122 155.137 245.143 148.313 237.699C148.011 237.261 148.15 236.523 148.623 236.457C150.517 236.194 152.378 235.696 154.239 235.198C155.186 235.067 156.166 235.171 157.178 235.51C161.39 238.042 166.05 238.594 170.548 237.97Z" fill="#E94732"/>
<path d="M117.607 210.881C118.422 209.802 115.228 205.901 114.295 202.651C108.125 182.51 112.836 160.858 126.338 145.227C126.542 144.957 127.659 144.32 128.296 145.438L139.296 156.945C139.868 157.59 140.748 156.985 140.413 156.307L134.545 145.295L131.628 139.907L130.99 138.789C130.688 138.348 130.826 137.605 131.266 137.302C134.69 134.173 138.652 131.451 142.916 129.169C147.181 126.888 151.78 125.284 156.209 124.187C156.682 124.122 157.425 124.26 157.49 124.733L158.128 125.852L161.078 131.476L167.209 144.383C167.544 145.06 168.457 144.692 168.359 143.982L165.218 126.557C165.02 125.137 165.697 124.801 166.17 124.736C186.376 122.656 206.371 131.225 219.48 147.508C221.799 150.324 223.094 156.178 224.953 155.679C226.609 155.449 224.296 150.943 224.296 150.943C223.593 149.351 224.506 148.983 225.045 149.391C227.844 150.45 230 152.082 231.275 154.319C231.307 154.556 233.588 158.825 234.895 161.299C240.126 171.192 232.714 183.806 219.428 195.786C217.936 197.2 216.984 199.022 216.773 200.982C216.077 206.388 212.68 211.446 207.535 214.332L175.384 231.102C173.591 232.075 171.494 232.607 169.602 232.87C166.054 233.362 162.341 232.671 159.24 231.17C157.42 230.216 155.462 230.005 153.333 230.3C150.764 230.898 147.958 231.529 145.356 231.89C131.872 233.761 120.939 231.416 116.648 223.082C115.373 220.845 113.06 216.339 113.027 216.102C111.752 213.865 111.864 211.195 112.449 208.459C112.62 207.952 113.329 207.854 113.631 208.295C114.538 209.617 116.588 212.229 117.607 210.881Z" fill="#173A86"/>
</svg>
