<svg width="116" height="112" viewBox="0 0 116 112" fill="none" xmlns="http://www.w3.org/2000/svg">
<path d="M115.833 42.691C115.434 41.4605 114.371 40.5638 113.09 40.378L77.1299 35.1524L61.0475 2.56669C60.4752 1.4067 59.2936 0.672409 58.0002 0.672409C56.7065 0.672409 55.5252 1.4067 54.9527 2.56669L38.8696 35.1524L2.9097 40.378C1.62985 40.5638 0.566148 41.4605 0.166493 42.6908C-0.233388 43.9212 0.10011 45.2717 1.02652 46.1746L27.0467 71.5391L20.905 107.355C20.6862 108.63 21.2104 109.918 22.2569 110.678C22.8489 111.109 23.5501 111.327 24.2547 111.327C24.7958 111.327 25.3386 111.198 25.8357 110.937L58 94.0269L90.1629 110.937C91.3082 111.539 92.6954 111.439 93.7419 110.678C94.7884 109.918 95.3129 108.629 95.0942 107.354L88.9505 71.5391L114.974 46.1744C115.9 45.2717 116.234 43.9212 115.833 42.691Z" fill="#759AD9"/>
</svg>
