<svg width="90" height="110" viewBox="0 0 90 110" fill="none" xmlns="http://www.w3.org/2000/svg">
<path d="M87.7714 13.0803L45.8992 0.135996C45.313 -0.045332 44.6881 -0.045332 44.1016 0.135996L2.22861 13.0803C0.905913 13.4892 0 14.7439 0 16.167V63.6294C0 69.8027 2.42543 76.1222 7.20852 82.4121C10.8616 87.216 15.9157 92.0399 22.23 96.75C32.8376 104.662 43.283 109.516 43.7225 109.719C44.1289 109.906 44.5647 110 45.0004 110C45.4362 110 45.8719 109.906 46.2783 109.719C46.7176 109.516 57.1628 104.662 67.7704 96.75C74.0847 92.0399 79.1386 87.216 82.7919 82.4121C87.575 76.1224 90 69.803 90 63.6294V16.167C90 14.7439 89.0945 13.4892 87.7714 13.0803Z" fill="#759AD9"/>
</svg>
