<svg width="326" height="267" viewBox="0 0 326 267" fill="none" xmlns="http://www.w3.org/2000/svg">
<line x1="17.4507" y1="2.18557e-08" x2="17.4507" y2="266.498" stroke="#C7E2F4"/>
<line x1="49.7744" y1="1.7632e-08" x2="49.7744" y2="266.498" stroke="#C7E2F4"/>
<line x1="82.0986" y1="1.7632e-08" x2="82.0986" y2="266.498" stroke="#C7E2F4"/>
<line x1="114.423" y1="1.7632e-08" x2="114.423" y2="266.498" stroke="#C7E2F4"/>
<line x1="146.747" y1="1.7632e-08" x2="146.747" y2="266.498" stroke="#C7E2F4"/>
<line x1="179.071" y1="1.7632e-08" x2="179.071" y2="266.498" stroke="#C7E2F4"/>
<line x1="211.395" y1="1.7632e-08" x2="211.395" y2="266.498" stroke="#C7E2F4"/>
<line x1="243.719" y1="1.7632e-08" x2="243.719" y2="266.498" stroke="#C7E2F4"/>
<line x1="276.043" y1="1.7632e-08" x2="276.043" y2="266.498" stroke="#C7E2F4"/>
<line x1="308.367" y1="1.7632e-08" x2="308.367" y2="266.498" stroke="#C7E2F4"/>
<line x1="326" y1="13.5387" x2="-5.21948e-08" y2="13.5387" stroke="#C7E2F4"/>
<line x1="326" y1="39.6161" x2="-5.21948e-08" y2="39.6161" stroke="#C7E2F4"/>
<line x1="326" y1="65.6935" x2="-5.21948e-08" y2="65.6935" stroke="#C7E2F4"/>
<line x1="326" y1="91.7709" x2="-5.21948e-08" y2="91.7709" stroke="#C7E2F4"/>
<line x1="326" y1="117.848" x2="-5.21948e-08" y2="117.848" stroke="#C7E2F4"/>
<line x1="326" y1="143.926" x2="-5.21948e-08" y2="143.926" stroke="#C7E2F4"/>
<line x1="326" y1="170.003" x2="-5.21948e-08" y2="170.003" stroke="#C7E2F4"/>
<line x1="326" y1="196.08" x2="-5.21948e-08" y2="196.08" stroke="#C7E2F4"/>
<line x1="326" y1="222.158" x2="-5.21948e-08" y2="222.158" stroke="#C7E2F4"/>
<line x1="326" y1="248.235" x2="-5.21948e-08" y2="248.235" stroke="#C7E2F4"/>
</svg>
