<svg width="56" height="40" viewBox="0 0 56 40" fill="none" xmlns="http://www.w3.org/2000/svg">
<rect x="0.5" y="0.5" width="55" height="38.0526" rx="3.5" fill="white" stroke="#F3F3F3"/>
<path fill-rule="evenodd" clip-rule="evenodd" d="M16.9715 14.5731C16.5641 15.0658 15.9124 15.4545 15.2607 15.399C15.1792 14.7327 15.4983 14.0247 15.8717 13.5875C16.279 13.0808 16.9918 12.7199 17.5689 12.6921C17.6368 13.3862 17.372 14.0664 16.9715 14.5731ZM17.562 15.5309C16.9879 15.4971 16.464 15.7074 16.0408 15.8773C15.7685 15.9866 15.5379 16.0792 15.3625 16.0792C15.1656 16.0792 14.9255 15.9816 14.6559 15.8721C14.3026 15.7287 13.8987 15.5646 13.4752 15.5725C12.5044 15.5864 11.6015 16.1486 11.1059 17.0439C10.0876 18.8346 10.8411 21.4859 11.8255 22.9434C12.3075 23.6653 12.8846 24.4565 13.6449 24.4287C13.9794 24.4158 14.22 24.3114 14.4691 24.2034C14.7558 24.079 15.0536 23.9498 15.5186 23.9498C15.9675 23.9498 16.2523 24.0757 16.5257 24.1965C16.7857 24.3113 17.0353 24.4216 17.4059 24.4149C18.1934 24.401 18.689 23.693 19.171 22.9712C19.6912 22.1965 19.9197 21.4404 19.9544 21.3257L19.9585 21.3124C19.9577 21.3115 19.9512 21.3085 19.9399 21.3032C19.766 21.2219 18.437 20.5998 18.4242 18.9318C18.4114 17.5317 19.4784 16.8223 19.6463 16.7106L19.6464 16.7106C19.6566 16.7038 19.6635 16.6993 19.6666 16.6969C18.9877 15.6697 17.9286 15.5586 17.562 15.5309ZM23.0135 24.3385V13.5181H26.9849C29.0351 13.5181 30.4676 14.9618 30.4676 17.0717C30.4676 19.1817 29.008 20.6392 26.9306 20.6392H24.6564V24.3385H23.0135ZM24.6564 14.934H26.5505C27.9762 14.934 28.7908 15.7113 28.7908 17.0786C28.7908 18.4459 27.9762 19.2302 26.5437 19.2302H24.6564V14.934ZM35.8917 23.0406C35.4572 23.8874 34.5 24.4218 33.4681 24.4218C31.9406 24.4218 30.8748 23.4917 30.8748 22.0897C30.8748 20.7016 31.9067 19.9034 33.8143 19.7854L35.8645 19.6605V19.0636C35.8645 18.1822 35.3011 17.7033 34.2963 17.7033C33.4681 17.7033 32.8639 18.1405 32.7417 18.8068H31.2617C31.3093 17.4048 32.5991 16.3845 34.3438 16.3845C36.2243 16.3845 37.4463 17.3909 37.4463 18.9526V24.3385H35.9256V23.0406H35.8917ZM33.9095 23.1378C33.0337 23.1378 32.4771 22.7075 32.4771 22.0481C32.4771 21.3679 33.0134 20.9723 34.0385 20.9099L35.8647 20.7919V21.4026C35.8647 22.416 35.0229 23.1378 33.9095 23.1378ZM42.4906 24.7619C41.8321 26.6567 41.0785 27.2814 39.4764 27.2814C39.3542 27.2814 38.9468 27.2675 38.8518 27.2397V25.9418C38.9536 25.9557 39.2048 25.9696 39.3338 25.9696C40.0602 25.9696 40.4675 25.6573 40.7187 24.8452L40.8681 24.3663L38.0847 16.4887H39.8022L41.737 22.881H41.771L43.7058 16.4887H45.3758L42.4906 24.7619Z" fill="black"/>
</svg>
