<svg width="32" height="34" viewBox="0 0 32 34" fill="none" xmlns="http://www.w3.org/2000/svg">
<path opacity="0.15" d="M3.39342 13.6567C3.56178 11.8619 5.04654 10.4912 6.82235 10.4912H24.1774C25.9532 10.4912 27.438 11.8619 27.6064 13.6567L28.9185 27.645C29.1111 29.6981 27.5209 31.4737 25.4896 31.4737H5.51018C3.47885 31.4737 1.88866 29.6981 2.08125 27.645L3.39342 13.6567Z" fill="#18438B"/>
<path fill-rule="evenodd" clip-rule="evenodd" d="M15.4997 2.8215C12.2787 2.8215 9.6676 5.47251 9.6676 8.74269V9.41826H21.3317V8.74269C21.3317 5.47251 18.7206 2.8215 15.4997 2.8215ZM23.4454 9.41826V8.74269C23.4454 4.28734 19.888 0.67557 15.4997 0.67557C11.1114 0.67557 7.55396 4.28734 7.55396 8.74269V9.41826H6.82213C4.50147 9.41826 2.56117 11.2095 2.34115 13.555L1.02898 27.5433C0.777299 30.2263 2.85538 32.5466 5.50996 32.5466H25.4894C28.144 32.5466 30.222 30.2263 29.9704 27.5433L28.6582 13.555C28.4382 11.2095 26.4979 9.41826 24.1772 9.41826H23.4454ZM6.82213 11.5642C5.59117 11.5642 4.56197 12.5143 4.44526 13.7585L3.13309 27.7468C2.99959 29.1699 4.10188 30.4007 5.50996 30.4007H25.4894C26.8975 30.4007 27.9997 29.1699 27.8662 27.7468L26.5541 13.7585C26.4374 12.5143 25.4082 11.5642 24.1772 11.5642H6.82213ZM8.61078 14.6639C9.19444 14.6639 9.6676 15.1443 9.6676 15.7369V15.7543C9.6676 16.3469 9.19444 16.8273 8.61078 16.8273C8.02712 16.8273 7.55396 16.3469 7.55396 15.7543V15.7369C7.55396 15.1443 8.02712 14.6639 8.61078 14.6639ZM22.3886 14.6639C22.9722 14.6639 23.4454 15.1443 23.4454 15.7369V15.7543C23.4454 16.3469 22.9722 16.8273 22.3886 16.8273C21.8049 16.8273 21.3317 16.3469 21.3317 15.7543V15.7369C21.3317 15.1443 21.8049 14.6639 22.3886 14.6639Z" fill="#18438B"/>
</svg>
