<svg width="18" height="20" viewBox="0 0 18 20" fill="none" xmlns="http://www.w3.org/2000/svg">
<path opacity="0.15" d="M1.97043 7.90172C2.06819 6.86324 2.93031 6.07016 3.96142 6.07016H14.0386C15.0697 6.07016 15.9318 6.86324 16.0296 7.90172L16.7915 15.9953C16.9033 17.1832 15.98 18.2105 14.8005 18.2105H3.19952C2.02004 18.2105 1.0967 17.1832 1.20853 15.9953L1.97043 7.90172Z" fill="#18438B"/>
<path fill-rule="evenodd" clip-rule="evenodd" d="M8.99997 1.6325C7.12974 1.6325 5.61361 3.16636 5.61361 5.05847V5.44935H12.3863V5.05847C12.3863 3.16636 10.8702 1.6325 8.99997 1.6325ZM13.6136 5.44935V5.05847C13.6136 2.48062 11.548 0.390869 8.99997 0.390869C6.45193 0.390869 4.38634 2.48062 4.38634 5.05847V5.44935H3.96141C2.61392 5.44935 1.4873 6.48576 1.35954 7.84286L0.597638 15.9364C0.451502 17.4888 1.65813 18.8313 3.1995 18.8313H14.8004C16.3418 18.8313 17.5484 17.4888 17.4023 15.9364L16.6404 7.84286C16.5127 6.48576 15.386 5.44935 14.0385 5.44935H13.6136ZM3.96141 6.69098C3.24666 6.69098 2.64905 7.24073 2.58129 7.96058L1.81938 16.0541C1.74187 16.8776 2.38191 17.5897 3.1995 17.5897H14.8004C15.618 17.5897 16.2581 16.8776 16.1806 16.0541L15.4187 7.96058C15.3509 7.24072 14.7533 6.69098 14.0385 6.69098H3.96141ZM4.99997 8.48445C5.33888 8.48445 5.61361 8.7624 5.61361 9.10527V9.11538C5.61361 9.45824 5.33888 9.73619 4.99997 9.73619C4.66107 9.73619 4.38634 9.45824 4.38634 9.11538V9.10527C4.38634 8.7624 4.66107 8.48445 4.99997 8.48445ZM13 8.48445C13.3389 8.48445 13.6136 8.7624 13.6136 9.10527V9.11538C13.6136 9.45824 13.3389 9.73619 13 9.73619C12.6611 9.73619 12.3863 9.45824 12.3863 9.11538V9.10527C12.3863 8.7624 12.6611 8.48445 13 8.48445Z" fill="#18438B"/>
</svg>
