<svg width="18" height="20" viewBox="0 0 18 20" fill="none" xmlns="http://www.w3.org/2000/svg">
<path opacity="0.15" d="M1.97043 7.90163C2.06819 6.86315 2.93031 6.07007 3.96142 6.07007H14.0386C15.0697 6.07007 15.9318 6.86315 16.0296 7.90162L16.7915 15.9952C16.9033 17.1831 15.98 18.2104 14.8005 18.2104H3.19952C2.02004 18.2104 1.0967 17.1831 1.20853 15.9952L1.97043 7.90163Z" fill="white"/>
<path fill-rule="evenodd" clip-rule="evenodd" d="M9.00004 1.6325C7.1298 1.6325 5.61367 3.16636 5.61367 5.05847V5.44935H12.3864V5.05847C12.3864 3.16636 10.8703 1.6325 9.00004 1.6325ZM13.6137 5.44935V5.05847C13.6137 2.48062 11.5481 0.390869 9.00004 0.390869C6.45199 0.390869 4.3864 2.48062 4.3864 5.05847V5.44935H3.96147C2.61398 5.44935 1.48736 6.48576 1.3596 7.84286L0.597699 15.9364C0.451563 17.4888 1.65819 18.8313 3.19956 18.8313H14.8005C16.3419 18.8313 17.5485 17.4888 17.4024 15.9364L16.6405 7.84286C16.5127 6.48576 15.3861 5.44935 14.0386 5.44935H13.6137ZM3.96147 6.69098C3.24672 6.69098 2.64911 7.24073 2.58135 7.96058L1.81944 16.0541C1.74193 16.8776 2.38197 17.5897 3.19956 17.5897H14.8005C15.6181 17.5897 16.2581 16.8776 16.1806 16.0541L15.4187 7.96058C15.351 7.24072 14.7534 6.69098 14.0386 6.69098H3.96147ZM5.00004 8.48445C5.33894 8.48445 5.61367 8.7624 5.61367 9.10527V9.11538C5.61367 9.45824 5.33894 9.73619 5.00004 9.73619C4.66113 9.73619 4.3864 9.45824 4.3864 9.11538V9.10527C4.3864 8.7624 4.66113 8.48445 5.00004 8.48445ZM13 8.48445C13.3389 8.48445 13.6137 8.7624 13.6137 9.10527V9.11538C13.6137 9.45824 13.3389 9.73619 13 9.73619C12.6611 9.73619 12.3864 9.45824 12.3864 9.11538V9.10527C12.3864 8.7624 12.6611 8.48445 13 8.48445Z" fill="white"/>
</svg>
