<svg width="30" height="30" viewBox="0 0 30 30" fill="none" xmlns="http://www.w3.org/2000/svg">
<path opacity="0.15" d="M1.66663 5.66674C1.66663 3.45761 3.45749 1.66675 5.66663 1.66675H24.3333C26.5424 1.66675 28.3333 3.45761 28.3333 5.66675V24.3334C28.3333 26.5426 26.5424 28.3334 24.3333 28.3334H5.66662C3.45748 28.3334 1.66663 26.5426 1.66663 24.3334V5.66674Z" fill="#18438B"/>
<path fill-rule="evenodd" clip-rule="evenodd" d="M0.541626 8.33342C0.541626 4.0302 4.03007 0.541748 8.33329 0.541748H21.6666C25.9698 0.541748 29.4583 4.0302 29.4583 8.33342V21.6667C29.4583 25.97 25.9698 29.4584 21.6666 29.4584H8.33329C4.03007 29.4584 0.541626 25.97 0.541626 21.6667V8.33342ZM8.33329 2.79175C5.27272 2.79175 2.79163 5.27284 2.79163 8.33342V21.6667C2.79163 24.7273 5.27272 27.2084 8.33329 27.2084H21.6666C24.7272 27.2084 27.2083 24.7273 27.2083 21.6667V8.33342C27.2083 5.27284 24.7272 2.79175 21.6666 2.79175H8.33329ZM10.8711 5.87125C11.3105 5.43191 12.0228 5.43191 12.4621 5.87125L20.7955 14.2046C21.2348 14.6439 21.2348 15.3562 20.7955 15.7956L12.4621 24.1289C12.0228 24.5683 11.3105 24.5683 10.8711 24.1289C10.4318 23.6896 10.4318 22.9773 10.8711 22.5379L18.409 15.0001L10.8711 7.46224C10.4318 7.0229 10.4318 6.31059 10.8711 5.87125Z" fill="#18438B"/>
</svg>
