<svg width="24" height="16" viewBox="0 0 24 16" fill="none" xmlns="http://www.w3.org/2000/svg">
<g clip-path="url(#clip0)">
<path d="M22.8026 9.20455C22.424 9.81816 21.5201 10.7209 19.5092 11.5652C19.4705 11.5812 19.0385 11.7695 18.9048 11.4247C18.7575 11.0461 18.9888 10.8013 19.1453 10.7362C21.1175 9.90838 21.3096 9.07075 21.5992 8.67867C21.2758 7.42746 20.437 3.55114 15.3904 1.97349V9.20461C15.3904 10.2195 14.5645 11.0456 13.5495 11.0456H10.4813C9.46641 11.0456 8.6404 10.2196 8.6404 9.20461V1.94641C4.35044 3.17433 2.83786 7.06541 2.41016 8.75041C2.42672 8.76883 2.44513 8.78603 2.45681 8.80868C2.45867 8.8124 2.48011 8.84981 2.5231 8.90994C2.74032 9.21552 3.56139 10.1814 5.80237 11.1227C5.95882 11.1878 6.15217 11.4608 5.96556 11.8517C5.75444 12.2929 5.42864 12.1634 5.39001 12.1474C3.36252 11.2963 2.41568 10.3053 2.00826 9.81931H0.0495605V11.1233C0.0495605 11.1233 1.12834 12.0517 2.96434 13.0372C3.3828 13.2618 3.83752 13.4877 4.33215 13.7079C4.49906 13.7821 4.67027 13.8558 4.84577 13.9283C6.72958 14.7039 9.07003 15.3409 11.7087 15.3409C14.3516 15.3409 17.6008 14.4283 19.4859 13.7368C19.6718 13.6687 19.8547 13.5993 20.0314 13.5294C20.6396 13.2876 21.0488 13.0373 21.5398 12.7937C23.1806 11.9788 23.982 11.2498 23.982 11.2498V9.20455H22.8026Z" fill="#759AD9"/>
<path d="M10.4813 9.81818H13.5494C13.8881 9.81818 14.163 9.54327 14.163 9.20458V1.65741V0.613604C14.163 0.274909 13.8881 0 13.5494 0H10.4813C10.1426 0 9.86768 0.274909 9.86768 0.613604V1.74821V9.20451C9.86768 9.54327 10.1426 9.81818 10.4813 9.81818Z" fill="#759AD9"/>
</g>
<defs>
<clipPath id="clip0">
<rect width="24" height="15.4011" fill="white"/>
</clipPath>
</defs>
</svg>
