<svg width="36" height="36" viewBox="0 0 36 36" fill="none" xmlns="http://www.w3.org/2000/svg">
<g clip-path="url(#clip0)">
<path opacity="0.15" d="M30.8094 5.35712C27.467 1.97101 23.0081 0.0695472 18.2539 0.00303157C17.7468 -0.00399968 17.3031 0.35361 17.2044 0.85318C16.8236 2.78052 15.1878 4.22241 13.2266 4.35959C12.9116 4.38167 12.623 4.54367 12.4402 4.80123C12.2574 5.05878 12.1996 5.38461 12.2828 5.68927C12.6756 7.12899 12.4049 8.73416 11.5402 10.0932C10.6456 11.4994 9.25889 12.4322 7.73571 12.6523C7.17082 12.734 6.77327 13.2502 6.83887 13.8173C6.85842 13.9866 6.86834 14.1566 6.86834 14.3227C6.86834 16.7333 4.90718 18.6945 2.49645 18.6945C2.12259 18.6945 1.75078 18.6471 1.39155 18.5536C1.05898 18.4669 0.705094 18.5479 0.44325 18.7704C0.181266 18.9928 0.0441564 19.3288 0.0757267 19.6711C0.485578 24.1196 2.53153 28.2388 5.83657 31.2697C9.16256 34.32 13.4814 35.9999 17.9977 35.9999C22.8056 35.9999 27.3258 34.1276 30.7256 30.7278C34.1254 27.328 35.9977 22.8078 35.9977 17.9999C35.9977 13.2366 34.1551 8.74667 30.8094 5.35712Z" fill="#18438B"/>
<path d="M30.8094 5.35712C27.467 1.97101 23.0081 0.0695472 18.2539 0.00303157C17.7468 -0.00399968 17.3031 0.35361 17.2044 0.85318C16.8236 2.78052 15.1878 4.22241 13.2266 4.35959C12.9116 4.38167 12.623 4.54367 12.4402 4.80123C12.2574 5.05878 12.1996 5.38461 12.2828 5.68927C12.6756 7.12899 12.4049 8.73416 11.5402 10.0932C10.6456 11.4994 9.25889 12.4322 7.73571 12.6523C7.17082 12.734 6.77327 13.2502 6.83887 13.8173C6.85842 13.9866 6.86834 14.1566 6.86834 14.3227C6.86834 16.7333 4.90718 18.6945 2.49645 18.6945C2.12259 18.6945 1.75078 18.6471 1.39155 18.5536C1.05898 18.4669 0.705094 18.5479 0.44325 18.7704C0.181266 18.9928 0.0441564 19.3288 0.0757267 19.6711C0.485578 24.1196 2.53153 28.2388 5.83657 31.2697C9.16256 34.32 13.4814 35.9999 17.9977 35.9999C22.8056 35.9999 27.3258 34.1276 30.7256 30.7278C34.1254 27.328 35.9977 22.8078 35.9977 17.9999C35.9977 13.2366 34.1551 8.74667 30.8094 5.35712ZM29.2341 29.2362C26.2327 32.2376 22.2422 33.8905 17.9977 33.8905C14.0108 33.8905 10.1981 32.4076 7.26209 29.7151C4.67529 27.3428 2.96227 24.2163 2.35462 20.8023C2.4018 20.8034 2.44912 20.8039 2.49637 20.8039C5.99773 20.8039 8.85952 18.0129 8.97405 14.5389C10.7272 14.0364 12.2773 12.8643 13.32 11.2254C14.2825 9.71241 14.7026 7.96065 14.5301 6.27652C16.6168 5.74011 18.3184 4.18592 19.0337 2.14377C22.9252 2.39316 26.548 4.04263 29.3081 6.83895C32.2618 9.83124 33.8884 13.795 33.8884 17.9999C33.8883 22.2444 32.2354 26.2349 29.2341 29.2362Z" fill="#18438B"/>
<path d="M12.4199 19.0322C10.4032 19.0322 8.76255 20.6729 8.76255 22.6895C8.76255 24.7062 10.4032 26.3468 12.4199 26.3468C14.4366 26.3468 16.0772 24.7062 16.0772 22.6895C16.0772 20.6729 14.4365 19.0322 12.4199 19.0322ZM12.4199 24.2375C11.5663 24.2375 10.8719 23.5431 10.8719 22.6895C10.8719 21.836 11.5663 21.1416 12.4199 21.1416C13.2735 21.1416 13.9679 21.836 13.9679 22.6895C13.9678 23.5431 13.2734 24.2375 12.4199 24.2375Z" fill="#18438B"/>
<path d="M21.2187 12.8614C23.3478 12.8614 25.08 11.1292 25.08 9.00002C25.08 6.87089 23.3478 5.13867 21.2187 5.13867C19.0896 5.13867 17.3573 6.87089 17.3573 9.00002C17.3573 11.1292 19.0895 12.8614 21.2187 12.8614ZM21.2187 7.24805C22.1847 7.24805 22.9707 8.034 22.9707 9.00002C22.9707 9.96612 22.1847 10.752 21.2187 10.752C20.2527 10.752 19.4667 9.96605 19.4667 9.00002C19.4667 8.03393 20.2526 7.24805 21.2187 7.24805Z" fill="#18438B"/>
<path d="M23.0633 21.9424C21.112 21.9424 19.5246 23.5298 19.5246 25.4811C19.5246 27.4323 21.112 29.0198 23.0633 29.0198C25.0145 29.0198 26.602 27.4323 26.602 25.4811C26.602 23.5298 25.0145 21.9424 23.0633 21.9424ZM23.0633 26.9104C22.2751 26.9104 21.634 26.2692 21.634 25.4811C21.634 24.6929 22.2751 24.0518 23.0633 24.0518C23.8514 24.0518 24.4926 24.6929 24.4926 25.4811C24.4926 26.2692 23.8514 26.9104 23.0633 26.9104Z" fill="#18438B"/>
<path d="M31.551 16.5074C31.551 14.5562 29.9636 12.9688 28.0123 12.9688C26.0611 12.9688 24.4737 14.5562 24.4737 16.5074C24.4737 18.4587 26.0611 20.0461 28.0123 20.0461C29.9636 20.0461 31.551 18.4587 31.551 16.5074ZM28.0123 17.9368C27.2242 17.9368 26.5831 17.2956 26.5831 16.5074C26.5831 15.7193 27.2242 15.0781 28.0123 15.0781C28.8004 15.0781 29.4416 15.7193 29.4416 16.5074C29.4416 17.2956 28.8004 17.9368 28.0123 17.9368Z" fill="#18438B"/>
<path d="M26.978 9.84934C27.0677 10.2818 27.4193 10.6202 27.8573 10.6864C28.2925 10.7521 28.7356 10.5281 28.9417 10.1397C29.148 9.75125 29.0905 9.26166 28.7935 8.93513C28.4971 8.60916 28.0159 8.50004 27.6086 8.66942C27.1456 8.86208 26.8864 9.35947 26.978 9.84934Z" fill="#18438B"/>
<path d="M31.2551 22.7913C31.1724 22.359 30.8093 22.0198 30.3765 21.9547C29.9416 21.8892 29.4976 22.1124 29.2913 22.5009C29.085 22.8893 29.1433 23.3798 29.4399 23.7061C29.7368 24.0328 30.2171 24.1391 30.6245 23.9712C31.0816 23.7827 31.3561 23.2777 31.2551 22.7913Z" fill="#18438B"/>
<path d="M13.4485 15.3074C13.5293 15.7394 13.8955 16.0796 14.3271 16.1445C14.7632 16.2101 15.2044 15.9857 15.4122 15.5978C15.6205 15.2091 15.5583 14.7204 15.2639 14.3932C14.9685 14.065 14.4856 13.9601 14.0791 14.1275C13.6219 14.3159 13.3475 14.8211 13.4485 15.3074Z" fill="#18438B"/>
<path d="M17.6257 29.8014C17.535 29.3688 17.1854 29.0306 16.7465 28.9641C16.3116 28.8981 15.8685 29.1228 15.6619 29.5103C15.4549 29.8986 15.5139 30.3891 15.8102 30.7155C16.1061 31.0414 16.5883 31.1501 16.995 30.9812C17.4513 30.7919 17.7267 30.2878 17.6257 29.8014Z" fill="#18438B"/>
<path d="M22.2277 15.6381C22.0902 15.2178 21.7171 14.9138 21.2705 14.891C20.8303 14.8685 20.4134 15.135 20.2449 15.5411C20.0764 15.9471 20.1832 16.4312 20.5106 16.7261C20.839 17.0218 21.325 17.0814 21.7152 16.8742C22.1561 16.64 22.3692 16.1146 22.2277 15.6381Z" fill="#18438B"/>
<path d="M19.6268 20.8046C19.9942 20.5627 20.1715 20.0968 20.0643 19.6713C19.9569 19.2447 19.5834 18.9213 19.1451 18.8788C18.707 18.8364 18.276 19.078 18.0885 19.4774C17.9013 19.8759 17.9837 20.362 18.2958 20.6739C18.6462 21.0239 19.2153 21.0822 19.6268 20.8046Z" fill="#18438B"/>
<path d="M6.35104 22.7913C6.26836 22.3591 5.90526 22.0198 5.47242 21.9547C5.03726 21.8892 4.59366 22.1123 4.38722 22.501C4.18085 22.8895 4.23886 23.3796 4.53558 23.7061C4.8323 24.0326 5.31316 24.1394 5.72034 23.9712C6.17681 23.7825 6.453 23.2778 6.35104 22.7913Z" fill="#18438B"/>
<path d="M6.37081 7.31461C8.38751 7.31461 10.0282 5.67394 10.0282 3.6573C10.0281 1.64067 8.38744 0 6.37081 0C4.35417 0 2.7135 1.64067 2.7135 3.6573C2.7135 5.67394 4.35417 7.31461 6.37081 7.31461ZM6.37081 2.10938C7.2244 2.10938 7.91881 2.80378 7.91881 3.6573C7.91881 4.51083 7.2244 5.20523 6.37081 5.20523C5.51728 5.20523 4.82288 4.51083 4.82288 3.6573C4.82288 2.80378 5.51728 2.10938 6.37081 2.10938Z" fill="#18438B"/>
<path d="M0.122062 11.8975C0.325828 12.2864 0.774351 12.5096 1.20734 12.4439C1.64306 12.3779 1.99969 12.0396 2.08659 11.6071C2.17329 11.1756 1.97163 10.7223 1.59412 10.4965C1.21563 10.2701 0.725203 10.3067 0.383625 10.5854C-0.00632843 10.9038 -0.103922 11.4549 0.122062 11.8975Z" fill="#18438B"/>
</g>
<defs>
<clipPath id="clip0">
<rect width="36" height="36" fill="white"/>
</clipPath>
</defs>
</svg>
