<svg width="254" height="158" viewBox="0 0 254 158" fill="none" xmlns="http://www.w3.org/2000/svg">
<line x1="49.731" y1="-77" x2="49.7309" y2="141.873" stroke="#C7E2F4"/>
<line x1="71.1481" y1="-77" x2="71.1481" y2="141.873" stroke="#C7E2F4"/>
<line x1="92.5653" y1="-77" x2="92.5653" y2="141.873" stroke="#C7E2F4"/>
<line x1="113.982" y1="-77" x2="113.982" y2="141.873" stroke="#C7E2F4"/>
<line x1="135.4" y1="-77" x2="135.4" y2="141.873" stroke="#C7E2F4"/>
<line x1="156.817" y1="-77" x2="156.817" y2="141.873" stroke="#C7E2F4"/>
<line x1="178.234" y1="-77" x2="178.234" y2="141.873" stroke="#C7E2F4"/>
<line x1="199.651" y1="-77" x2="199.651" y2="141.873" stroke="#C7E2F4"/>
<line x1="221.068" y1="-77" x2="221.068" y2="141.873" stroke="#C7E2F4"/>
<line x1="242.485" y1="-77" x2="242.485" y2="141.873" stroke="#C7E2F4"/>
<line x1="254" y1="19.8774" x2="38" y2="19.8774" stroke="#C7E2F4"/>
<line x1="254" y1="41.2946" x2="38" y2="41.2945" stroke="#C7E2F4"/>
<line x1="254" y1="62.7115" x2="38" y2="62.7115" stroke="#C7E2F4"/>
<line x1="254" y1="84.1289" x2="38" y2="84.1289" stroke="#C7E2F4"/>
<line x1="254" y1="105.546" x2="38" y2="105.546" stroke="#C7E2F4"/>
<line x1="254" y1="126.963" x2="38" y2="126.963" stroke="#C7E2F4"/>
<path d="M46.2723 120.674C47.4886 120.497 48.8347 120.145 50.0066 119.662C50.1586 119.64 50.3106 119.618 50.4849 119.748C62.5773 129.195 76.1567 134.999 82.075 137.249C91.2865 130.144 122.945 103.415 118.629 73.8377C116.916 62.0983 105.966 56.2221 96.6917 57.5753C92.8907 58.1299 89.5495 59.7073 86.9277 61.9584C86.7979 62.133 86.4938 62.1774 86.2973 61.8946C84.8363 60.395 82.6596 59.3113 79.897 58.4687C79.4186 58.3828 78.8957 57.992 78.5249 57.579C77.609 56.6227 76.6931 55.6664 75.7772 54.7101C75.6029 54.5798 75.5584 54.2749 75.6882 54.1002C80.5165 48.8803 87.1322 45.268 94.7341 44.1589C116.324 41.0088 130.296 53.7622 132.876 71.4475C139.372 115.966 91.0821 146.834 87.7223 149.349C86.595 150.136 85.4232 150.619 84.0548 150.818C82.6865 151.018 81.4257 150.89 80.1204 150.458C76.1823 149.008 61.9093 143.773 47.9258 134.135C41.8703 129.88 36.4008 125.385 31.9733 120.581C31.7768 120.298 31.8621 119.819 32.1661 119.774C33.3824 119.597 34.5765 119.267 35.7706 118.937C36.3787 118.848 37.0091 118.912 37.6618 119.128C40.3836 120.755 43.3836 121.096 46.2723 120.674Z" fill="#E94732"/>
<path d="M12.0912 103.96C12.6215 103.256 10.5142 100.743 9.891 98.6408C5.77458 85.6117 8.78556 71.5427 17.5811 61.3295C17.7137 61.1535 18.4436 60.7337 18.8654 61.4555L26.1168 68.8572C26.4939 69.2722 27.0689 68.875 26.8468 68.4374L22.9611 61.3279L21.0294 57.8498L20.6076 57.128C20.4079 56.8438 20.4957 56.361 20.7832 56.1624C23.0161 54.1133 25.6037 52.3258 28.3909 50.8225C31.1782 49.3192 34.1875 48.2534 37.0867 47.5171C37.3966 47.4719 37.8838 47.5575 37.9285 47.8643L38.3503 48.586L40.3044 52.2175L44.3691 60.5542C44.5912 60.9918 45.1886 60.748 45.1214 60.2878L43.0004 49.0042C42.8661 48.0838 43.3085 47.8626 43.6184 47.8174C56.8557 46.356 69.9932 51.8023 78.6443 62.2898C80.1748 64.1031 81.0443 67.8928 82.2614 67.5586C83.346 67.4003 81.8138 64.4906 81.8138 64.4906C81.3472 63.462 81.9446 63.2182 82.2993 63.4798C84.1379 64.1515 85.5565 65.1978 86.4001 66.6414C86.4225 66.7948 87.9324 69.5511 88.7983 71.148C92.2622 77.5358 87.4487 85.7579 78.7823 93.6023C77.8096 94.5275 77.1915 95.7144 77.0607 96.9867C76.6234 100.497 74.4146 103.796 71.0524 105.697L50.037 116.753C48.8646 117.394 47.4925 117.751 46.2529 117.931C43.9288 118.271 41.4927 117.843 39.4543 116.887C38.2578 116.278 36.9735 116.152 35.579 116.356C33.897 116.758 32.0601 117.182 30.3557 117.431C21.5239 118.72 14.3483 117.26 11.5059 111.878C10.6624 110.435 9.13012 107.525 9.10773 107.372C8.26414 105.928 8.32783 104.195 8.70141 102.418C8.81158 102.088 9.27641 102.02 9.47612 102.305C10.0752 103.157 11.4284 104.84 12.0912 103.96Z" fill="#173A86"/>
</svg>
