<svg width="22" height="21" viewBox="0 0 22 21" fill="none" xmlns="http://www.w3.org/2000/svg">
<g clip-path="url(#clip0)">
<path d="M17.5808 7.41145C17.8243 7.41145 18.0594 7.44855 18.2807 7.51725L20.2966 5.50133L19.357 4.56177L16.5073 7.41145H17.5808Z" fill="#759AD9"/>
<path d="M21.6539 6.85873L21.132 6.33691L19.3064 8.16255C19.7015 8.58514 19.944 9.15201 19.944 9.77478V10.2396L21.6539 8.5298C22.1153 8.06837 22.1153 7.3202 21.6539 6.85873Z" fill="#759AD9"/>
<path d="M18.5215 3.7263L15.1413 0.346102C14.6798 -0.115367 13.9316 -0.115367 13.4702 0.346102L6.40479 7.41152H14.8363L18.5215 3.7263Z" fill="#759AD9"/>
<path d="M17.0537 8.25H1.27965C0.5729 8.25 0 8.79471 0 9.46668V18.95C0 19.622 0.5729 20.1667 1.27965 20.1667H17.0537C17.7604 20.1667 18.3333 19.622 18.3333 18.95V9.46668C18.3333 8.79471 17.7604 8.25 17.0537 8.25Z" fill="#759AD9"/>
</g>
<defs>
<clipPath id="clip0">
<rect width="22" height="20.1667" fill="white"/>
</clipPath>
</defs>
</svg>
