<svg width="26" height="26" viewBox="0 0 26 26" fill="none" xmlns="http://www.w3.org/2000/svg">
<path d="M20.84 21.8C20.84 23.5673 19.4073 25 17.64 25C15.8727 25 14.44 23.5673 14.44 21.8C14.44 20.0327 15.8727 18.6 17.64 18.6C19.4073 18.6 20.84 20.0327 20.84 21.8Z" fill="white" fill-opacity="0.15"/>
<path d="M9.64 13C9.64 14.7673 8.20731 16.2 6.44 16.2C4.67269 16.2 3.24 14.7673 3.24 13C3.24 11.2327 4.67269 9.8 6.44 9.8C8.20731 9.8 9.64 11.2327 9.64 13Z" fill="white" fill-opacity="0.15"/>
<path d="M20.84 4.2C20.84 5.96731 19.4073 7.4 17.64 7.4C15.8727 7.4 14.44 5.96731 14.44 4.2C14.44 2.43269 15.8727 1 17.64 1C19.4073 1 20.84 2.43269 20.84 4.2Z" fill="white" fill-opacity="0.15"/>
<path d="M21.64 21.7158H25M3.24 13L1 13.0587M3.24 13C3.24 14.7673 4.67269 16.2 6.44 16.2C8.20731 16.2 9.64 14.7673 9.64 13C9.64 11.2327 8.20731 9.8 6.44 9.8C4.67269 9.8 3.24 11.2327 3.24 13ZM10.5586 13.0588H25M14.0679 4.40165L1 4.40165M25 4.40165H21.64M1 21.7158H14.0679M20.84 21.8C20.84 23.5673 19.4073 25 17.64 25C15.8727 25 14.44 23.5673 14.44 21.8C14.44 20.0327 15.8727 18.6 17.64 18.6C19.4073 18.6 20.84 20.0327 20.84 21.8ZM20.84 4.2C20.84 5.96731 19.4073 7.4 17.64 7.4C15.8727 7.4 14.44 5.96731 14.44 4.2C14.44 2.43269 15.8727 1 17.64 1C19.4073 1 20.84 2.43269 20.84 4.2Z" stroke="white" stroke-width="1.5" stroke-linecap="round"/>
</svg>
