<svg width="56" height="40" viewBox="0 0 56 40" fill="none" xmlns="http://www.w3.org/2000/svg">
<rect x="0.5" y="0.5" width="55" height="38.0526" rx="3.5" fill="white" stroke="#F3F3F3"/>
<g clip-path="url(#clip0)">
<path d="M23.6227 16.1259V15.002H20.4847H19.7249H19.2305V22.4478H20.4847V19.3597H23.3266V18.2357H20.4847V16.1259H23.6227Z" fill="black"/>
<path d="M35.6533 19.2097V22.4473H36.8374V18.9116C36.8374 18.0906 36.4111 16.5789 34.6053 16.5789C33.1942 16.5789 32.6515 17.4298 32.6515 17.4298L32.5622 16.6859H31.5117V22.4473H32.7117V19.5126C32.7117 18.2295 33.3926 17.6246 34.3093 17.6246C35.3987 17.6246 35.6533 18.489 35.6533 19.2097Z" fill="black"/>
<path d="M48.5809 21.9517L50.9995 16.6755H49.7651L48.0057 20.712L46.1307 16.6755H44.8301L47.376 22.0144C47.3207 22.1437 46.9813 22.9174 46.7316 23.1663C46.5135 23.3776 46.2124 23.4617 45.8522 23.4617L46.027 24.46C46.2906 24.4681 46.5532 24.4234 46.7985 24.3285C47.0437 24.2336 47.2663 24.0905 47.4528 23.9082C48.0086 23.3583 48.4665 22.2006 48.4665 22.2006L48.5649 21.9874H48.5978L48.5809 21.9517Z" fill="black"/>
<path d="M27.5367 16.5903H27.218C26.4376 16.5903 25.6891 16.8934 25.1373 17.4329C24.5854 17.9725 24.2754 18.7042 24.2754 19.4672V19.6862C24.2756 20.449 24.5858 21.1805 25.1376 21.7198C25.6894 22.2591 26.4377 22.5621 27.218 22.5621H27.5367C28.317 22.5621 29.0653 22.2591 29.6171 21.7198C30.1689 21.1805 30.4791 20.449 30.4793 19.6862V19.4672C30.4793 18.7042 30.1693 17.9725 29.6175 17.4329C29.0656 16.8934 28.3171 16.5903 27.5367 16.5903ZM29.2863 19.6485C29.2863 20.1347 29.0888 20.6009 28.7372 20.9447C28.3856 21.2884 27.9087 21.4816 27.4114 21.4816H27.3502C26.853 21.4816 26.3761 21.2884 26.0245 20.9447C25.6729 20.6009 25.4753 20.1347 25.4753 19.6485V19.5038C25.4753 19.0177 25.6729 18.5515 26.0245 18.2077C26.3761 17.864 26.853 17.6708 27.3502 17.6708H27.4055C27.9027 17.6708 28.3796 17.864 28.7312 18.2077C29.0829 18.5515 29.2804 19.0177 29.2804 19.5038L29.2863 19.6485Z" fill="black"/>
<path d="M42.8218 14.6321V17.2185C42.3015 16.8115 41.6548 16.59 40.9884 16.5905H40.8117C40.0314 16.5908 39.2831 16.8939 38.7313 17.4334C38.1795 17.9728 37.8694 18.7044 37.8691 19.4673V19.6864C37.8694 20.4492 38.1795 21.1806 38.7314 21.7199C39.2832 22.2593 40.0315 22.5622 40.8117 22.5622H40.9884C41.729 22.5633 42.4425 22.2903 42.9856 21.7981L43.0829 22.4359H44.0297V14.6321H42.8218ZM42.881 19.6487C42.881 20.1348 42.6835 20.6011 42.3319 20.9449C41.9803 21.2886 41.5034 21.4817 41.0061 21.4817H40.945C40.4477 21.4817 39.9708 21.2886 39.6192 20.9449C39.2676 20.6011 39.0701 20.1348 39.0701 19.6487V19.504C39.0701 19.0179 39.2676 18.5516 39.6192 18.2079C39.9708 17.8641 40.4477 17.671 40.945 17.671H41.0061C41.5034 17.671 41.9803 17.8641 42.3319 18.2079C42.6835 18.5516 42.881 19.0179 42.881 19.504V19.6487Z" fill="black"/>
<path d="M11.5053 22.2306V21.0054C11.5052 20.9377 11.4869 20.8713 11.4523 20.8127C11.4177 20.7541 11.3679 20.7055 11.3079 20.6716L10.2225 20.059C10.1625 20.0251 10.0944 20.0073 10.0251 20.0073C9.95581 20.0073 9.88774 20.0251 9.82773 20.059L8.74228 20.6716C8.68234 20.7055 8.63255 20.7541 8.59791 20.8127C8.56327 20.8713 8.54499 20.9377 8.54492 21.0054V22.2306C8.54482 22.2985 8.56301 22.3651 8.59766 22.4239C8.63231 22.4827 8.68219 22.5315 8.74228 22.5654L9.82773 23.178C9.88774 23.2119 9.95581 23.2297 10.0251 23.2297C10.0944 23.2297 10.1625 23.2119 10.2225 23.178L11.3079 22.5654C11.368 22.5315 11.4179 22.4827 11.4525 22.4239C11.4872 22.3651 11.5054 22.2985 11.5053 22.2306Z" fill="#08A835"/>
<path d="M15.0502 22.2306V21.0054C15.0501 20.9377 15.0319 20.8713 14.9972 20.8127C14.9626 20.7541 14.9128 20.7055 14.8528 20.6716L13.7674 20.059C13.7074 20.0251 13.6393 20.0073 13.57 20.0073C13.5007 20.0073 13.4327 20.0251 13.3727 20.059L12.2872 20.6716C12.2273 20.7055 12.1775 20.7541 12.1428 20.8127C12.1082 20.8713 12.0899 20.9377 12.0898 21.0054V22.2306C12.0898 22.2985 12.1079 22.3651 12.1426 22.4239C12.1772 22.4827 12.2271 22.5315 12.2872 22.5654L13.3727 23.178C13.4327 23.2119 13.5007 23.2297 13.57 23.2297C13.6393 23.2297 13.7074 23.2119 13.7674 23.178L14.8528 22.5654C14.9129 22.5315 14.9628 22.4827 14.9975 22.4239C15.0321 22.3651 15.0503 22.2985 15.0502 22.2306Z" fill="#08A835"/>
<path d="M9.73771 19.2272V18.002C9.738 17.934 9.7199 17.8672 9.68521 17.8082C9.65056 17.7492 9.60059 17.7003 9.54037 17.6663L8.45489 17.0556C8.39488 17.0217 8.32682 17.0039 8.25753 17.0039C8.18824 17.0039 8.12018 17.0217 8.06017 17.0556L6.9747 17.6663C6.91476 17.7001 6.86497 17.7488 6.83033 17.8074C6.79569 17.866 6.77742 17.9324 6.77734 18.0001V19.2253C6.77724 19.2931 6.79543 19.3598 6.83008 19.4186C6.86473 19.4773 6.91461 19.5262 6.9747 19.5601L8.06017 20.1746C8.12018 20.2085 8.18824 20.2263 8.25753 20.2263C8.32682 20.2263 8.39488 20.2085 8.45489 20.1746L9.54037 19.562C9.60047 19.5281 9.65035 19.4793 9.685 19.4205C9.71964 19.3617 9.73783 19.2951 9.73771 19.2272Z" fill="#08A835"/>
<path d="M13.2787 19.2272V18.002C13.2787 17.9343 13.2604 17.8679 13.2258 17.8093C13.1911 17.7507 13.1413 17.7021 13.0814 17.6682L11.9959 17.0556C11.9359 17.0217 11.8678 17.0039 11.7985 17.0039C11.7293 17.0039 11.6612 17.0217 11.6012 17.0556L10.5157 17.6663C10.4558 17.7001 10.406 17.7488 10.3714 17.8074C10.3367 17.866 10.3184 17.9324 10.3184 18.0001V19.2253C10.3183 19.2931 10.3365 19.3598 10.3711 19.4186C10.4058 19.4773 10.4556 19.5262 10.5157 19.5601L11.6012 20.1727C11.6612 20.2065 11.7293 20.2244 11.7985 20.2244C11.8678 20.2244 11.9359 20.2065 11.9959 20.1727L13.0814 19.5601C13.1412 19.5263 13.1909 19.4778 13.2255 19.4194C13.2602 19.361 13.2785 19.2947 13.2787 19.2272Z" fill="#08A835"/>
<path d="M7.96037 22.2306V21.0054C7.9603 20.9377 7.94203 20.8713 7.90739 20.8127C7.87275 20.7541 7.82296 20.7055 7.76301 20.6716L6.67754 20.059C6.61754 20.0251 6.54947 20.0073 6.48019 20.0073C6.4109 20.0073 6.34283 20.0251 6.28283 20.059L5.19736 20.6716C5.13741 20.7055 5.08762 20.7541 5.05298 20.8127C5.01834 20.8713 5.00007 20.9377 5 21.0054V22.2306C4.9999 22.2985 5.01809 22.3651 5.05274 22.4239C5.08739 22.4827 5.13727 22.5315 5.19736 22.5654L6.28283 23.178C6.34283 23.2119 6.4109 23.2297 6.48019 23.2297C6.54947 23.2297 6.61754 23.2119 6.67754 23.178L7.76301 22.5654C7.8231 22.5315 7.87299 22.4827 7.90763 22.4239C7.94228 22.3651 7.96047 22.2985 7.96037 22.2306Z" fill="#08A835"/>
<path d="M11.5053 16.2241V14.9988C11.5052 14.9312 11.4869 14.8647 11.4523 14.8061C11.4177 14.7475 11.3679 14.6989 11.3079 14.665L10.2225 14.0524C10.1625 14.0186 10.0944 14.0007 10.0251 14.0007C9.95581 14.0007 9.88774 14.0186 9.82773 14.0524L8.74228 14.665C8.68234 14.6989 8.63255 14.7475 8.59791 14.8061C8.56327 14.8647 8.54499 14.9312 8.54492 14.9988V16.2241C8.54482 16.2919 8.56301 16.3586 8.59766 16.4173C8.63231 16.4761 8.68219 16.5249 8.74228 16.5588L9.82773 17.1714C9.88774 17.2053 9.95581 17.2231 10.0251 17.2231C10.0944 17.2231 10.1625 17.2053 10.2225 17.1714L11.3079 16.5588C11.368 16.5249 11.4179 16.4761 11.4525 16.4173C11.4872 16.3586 11.5054 16.2919 11.5053 16.2241Z" fill="black"/>
</g>
<defs>
<clipPath id="clip0">
<rect width="46" height="10.5505" fill="white" transform="translate(5 14)"/>
</clipPath>
</defs>
</svg>
