<svg width="65" height="55" viewBox="0 0 65 55" fill="none" xmlns="http://www.w3.org/2000/svg">
<path d="M17.6065 36.9523C18.2211 36.9523 18.9125 36.8755 19.5271 36.7218C19.6039 36.7218 19.6808 36.7218 19.7576 36.7986C25.0584 42.33 31.358 46.1712 34.1237 47.7077C39.1941 44.8652 56.7868 33.9561 56.7868 19.0523C56.7868 13.1368 51.7932 9.44925 47.107 9.44925C45.1864 9.44925 43.4194 9.98701 41.9598 10.9089C41.8829 10.9857 41.7293 10.9857 41.6525 10.8321C41.0379 9.98701 40.0392 9.2956 38.7331 8.681C38.5027 8.60418 38.2722 8.37371 38.1185 8.14324C37.7344 7.60547 37.3503 7.0677 36.9662 6.52993C36.8894 6.4531 36.8894 6.29946 36.9662 6.22263C39.7319 3.99473 43.2658 2.68872 47.107 2.68872C58.016 2.68872 64.0083 9.98701 64.0083 18.8986C64.0083 41.3313 37.8881 53.0854 36.0443 54.0841C35.4297 54.3914 34.8151 54.545 34.1237 54.545C33.4323 54.545 32.8177 54.3914 32.2031 54.0841C30.3593 53.0854 23.6756 49.4746 17.4529 43.7128C14.764 41.1776 12.3825 38.5656 10.5387 35.8768C10.4619 35.7231 10.5387 35.4926 10.6923 35.4926C11.3069 35.4926 11.9215 35.4158 12.5361 35.339C12.8434 35.339 13.1507 35.4158 13.458 35.5695C14.6872 36.5682 16.1468 36.9523 17.6065 36.9523Z" fill="#E94732"/>
<path d="M1.85763 25.8897C2.16493 25.5824 1.31986 24.1996 1.16622 23.1241C0.0906786 16.4404 2.54905 9.75667 7.54262 5.37769C7.61944 5.30087 8.00357 5.14722 8.15721 5.53134L11.1534 9.67984C11.307 9.91032 11.6143 9.75667 11.5375 9.52619L10.1546 5.76181L9.46322 3.91803L9.30958 3.53391C9.23275 3.38026 9.30958 3.14979 9.46322 3.07297C10.6924 2.2279 12.0752 1.53648 13.5349 0.998714C14.9946 0.460945 16.531 0.153648 17.9907 0C18.1444 0 18.3748 0.0768242 18.3748 0.230472L18.5285 0.614593L19.2199 2.5352L20.6027 6.91417C20.6795 7.14465 20.9868 7.06782 20.9868 6.83735L20.7564 1.15236C20.7564 0.691417 20.9868 0.614593 21.1405 0.614593C27.6705 0.845066 33.6628 4.4558 37.1199 10.2176C37.7345 11.2163 37.8882 13.1369 38.5028 13.0601C39.0405 13.0601 38.5028 11.5236 38.5028 11.5236C38.3491 10.9859 38.6564 10.909 38.81 11.0627C39.6551 11.5236 40.2697 12.1382 40.577 12.9065C40.577 12.9833 41.1148 14.4429 41.4221 15.288C42.6513 18.6683 39.7319 22.3558 34.9688 25.5824C34.4311 25.9666 34.0469 26.5043 33.8933 27.1189C33.4324 28.8091 32.1263 30.2687 30.3594 30.9601L19.3735 34.8782C18.7589 35.1086 18.0675 35.1855 17.4529 35.1855C16.3006 35.1855 15.1482 34.8013 14.2263 34.1867C13.6886 33.8026 13.074 33.649 12.3825 33.649C11.5375 33.7258 10.6156 33.8026 9.77052 33.8026C5.39154 33.8026 2.01128 32.5734 1.01257 29.7309C0.705272 28.9627 0.167503 27.4262 0.167503 27.3494C-0.139794 26.5812 0.0138545 25.7361 0.321151 24.891C0.397975 24.7374 0.628448 24.7374 0.705272 24.891C0.935744 25.352 1.47351 26.2739 1.85763 25.8897Z" fill="#173A86"/>
</svg>
