<svg width="56" height="40" viewBox="0 0 56 40" fill="none" xmlns="http://www.w3.org/2000/svg">
<rect x="0.5" y="0.5" width="55" height="38.0526" rx="3.5" fill="white" stroke="#F3F3F3"/>
<path fill-rule="evenodd" clip-rule="evenodd" d="M26.9554 23.547V19.1427V19.1419H29.3116C30.2831 19.1424 31.0995 18.8338 31.7609 18.2159C32.4293 17.6295 32.803 16.7863 32.784 15.9074C32.7972 15.0335 32.4242 14.1966 31.7609 13.612C31.1053 12.9907 30.2236 12.6517 29.3116 12.6704H25.5293V23.547H26.9554ZM26.9555 17.8063V14.0095V14.0086H29.3471C29.8801 13.9939 30.394 14.2041 30.7582 14.5857C31.1246 14.9347 31.3313 15.4141 31.3313 15.9148C31.3313 16.4155 31.1246 16.8949 30.7582 17.2439C30.3895 17.6175 29.8773 17.8217 29.3471 17.8063H26.9555Z" fill="#5F6368"/>
<path fill-rule="evenodd" clip-rule="evenodd" d="M38.5658 16.6902C37.9558 16.1383 37.1237 15.8623 36.0696 15.8623C34.7156 15.8623 33.6931 16.3483 33.0021 17.3203L34.2582 18.0952C34.7224 17.4368 35.3527 17.1076 36.1494 17.1076C36.6573 17.1018 37.1488 17.2837 37.5259 17.6171C37.9019 17.9216 38.1182 18.3757 38.1149 18.8537V19.1731C37.5669 18.8694 36.8695 18.7175 36.0227 18.7175C35.0306 18.7186 34.2375 18.9466 33.6435 19.4013C33.0494 19.8561 32.7523 20.4685 32.7523 21.2386C32.7394 21.9397 33.0499 22.6093 33.5974 23.061C34.1608 23.547 34.8608 23.79 35.6976 23.79C36.6779 23.79 37.4633 23.3647 38.0538 22.5143H38.1158V23.547H39.48V18.9605C39.4806 17.9989 39.1758 17.2422 38.5658 16.6902ZM34.6978 22.1801C34.399 21.9692 34.2228 21.6297 34.2247 21.2689C34.2247 20.8636 34.4187 20.526 34.8094 20.2483C35.1962 19.9747 35.6792 19.8378 36.2585 19.8378C37.054 19.8378 37.674 20.0114 38.1187 20.3585C38.1187 20.9452 37.8825 21.4564 37.4101 21.892C36.9846 22.309 36.4077 22.5436 35.8059 22.5446C35.4047 22.552 35.0132 22.4232 34.6978 22.1801Z" fill="#5F6368"/>
<path fill-rule="evenodd" clip-rule="evenodd" d="M47.3112 16.1052L42.5492 26.8273H41.077L42.8442 23.0757L39.7129 16.1052H41.263L43.5262 21.4511H43.5572L45.7584 16.1052H47.3112Z" fill="#5F6368"/>
<path fill-rule="evenodd" clip-rule="evenodd" d="M21.1908 18.1934C21.1913 17.7676 21.1546 17.3425 21.081 16.9229H15.0664V19.3294H18.5113C18.3688 20.106 17.9087 20.792 17.2375 21.2282V22.7903H19.2934C20.4972 21.7029 21.1908 20.0948 21.1908 18.1934Z" fill="#4285F4"/>
<path fill-rule="evenodd" clip-rule="evenodd" d="M15.0675 24.2994C16.7886 24.2994 18.2377 23.7457 19.2945 22.7911L17.2385 21.229C16.6663 21.6091 15.9293 21.826 15.0675 21.826C13.4039 21.826 11.992 20.7274 11.4871 19.2468H9.36914V20.8567C10.4517 22.9672 12.6565 24.2993 15.0675 24.2994Z" fill="#34A853"/>
<path fill-rule="evenodd" clip-rule="evenodd" d="M11.4865 19.247C11.2196 18.4711 11.2196 17.631 11.4865 16.8552V15.2454H9.36857C8.46308 17.0107 8.46308 19.0915 9.36857 20.8568L11.4865 19.247Z" fill="#FBBC04"/>
<path fill-rule="evenodd" clip-rule="evenodd" d="M15.0675 14.276C15.977 14.2614 16.8558 14.5981 17.514 15.2133L19.3343 13.4298C18.1801 12.3677 16.6509 11.7845 15.0675 11.8027C12.6565 11.8028 10.4517 13.1348 9.36914 15.2454L11.4871 16.8552C11.992 15.3747 13.4039 14.276 15.0675 14.276Z" fill="#EA4335"/>
</svg>
