<svg width="291" height="266" viewBox="0 0 291 266" fill="none" xmlns="http://www.w3.org/2000/svg">
<line x1="15.6152" y1="-29" x2="15.6152" y2="265.571" stroke="#C7E2F4"/>
<line x1="44.4395" y1="-29" x2="44.4395" y2="265.571" stroke="#C7E2F4"/>
<line x1="73.2639" y1="-29" x2="73.2639" y2="265.571" stroke="#C7E2F4"/>
<line x1="102.088" y1="-29" x2="102.088" y2="265.571" stroke="#C7E2F4"/>
<line x1="130.913" y1="-29" x2="130.913" y2="265.571" stroke="#C7E2F4"/>
<line x1="159.737" y1="-29" x2="159.737" y2="265.571" stroke="#C7E2F4"/>
<line x1="188.561" y1="-29" x2="188.561" y2="265.571" stroke="#C7E2F4"/>
<line x1="217.386" y1="-29" x2="217.386" y2="265.571" stroke="#C7E2F4"/>
<line x1="246.21" y1="-29" x2="246.21" y2="265.571" stroke="#C7E2F4"/>
<line x1="275.034" y1="-29" x2="275.034" y2="265.571" stroke="#C7E2F4"/>
<line x1="290.704" y1="14.7366" x2="-4.69594e-08" y2="14.7365" stroke="#C7E2F4"/>
<line x1="290.704" y1="43.5612" x2="-4.69594e-08" y2="43.5611" stroke="#C7E2F4"/>
<line x1="290.704" y1="72.3853" x2="-4.69594e-08" y2="72.3852" stroke="#C7E2F4"/>
<line x1="290.704" y1="101.21" x2="-4.69594e-08" y2="101.21" stroke="#C7E2F4"/>
<line x1="290.704" y1="130.034" x2="-4.69594e-08" y2="130.034" stroke="#C7E2F4"/>
<line x1="290.704" y1="158.858" x2="-4.69594e-08" y2="158.858" stroke="#C7E2F4"/>
<line x1="290.704" y1="187.683" x2="-4.69594e-08" y2="187.683" stroke="#C7E2F4"/>
<line x1="290.704" y1="216.507" x2="-4.69594e-08" y2="216.507" stroke="#C7E2F4"/>
<line x1="290.704" y1="245.331" x2="-4.69594e-08" y2="245.331" stroke="#C7E2F4"/>
</svg>
