<svg width="36" height="36" viewBox="0 0 36 36" fill="none" xmlns="http://www.w3.org/2000/svg">
<path d="M27.9477 13.5902C27.4119 13.5887 26.8901 13.7606 26.4603 14.0804C26.4601 13.6073 26.3232 13.1443 26.0661 12.7472C25.809 12.3501 25.4427 12.0357 25.0111 11.8418C24.5796 11.648 24.1012 11.5829 23.6336 11.6545C23.1659 11.7261 22.7289 11.9312 22.3751 12.2452C22.2015 11.776 21.8885 11.3711 21.4781 11.085C21.0676 10.7989 20.5794 10.6453 20.0791 10.6447C19.5491 10.6468 19.0337 10.8186 18.6085 11.1349V7.20903C18.6221 6.87833 18.5688 6.54828 18.4517 6.23876C18.3346 5.92919 18.1561 5.64652 17.9269 5.40773C17.6978 5.16891 17.4227 4.9789 17.1183 4.84908C16.8138 4.71927 16.4863 4.65234 16.1553 4.65234C15.8244 4.65234 15.4968 4.71927 15.1923 4.84908C14.8879 4.9789 14.6129 5.16891 14.3837 5.40773C14.1545 5.64652 13.9761 5.92919 13.8589 6.23876C13.7418 6.54828 13.6885 6.87833 13.7022 7.20903V18.1823C13.4526 17.6679 13.0654 17.2328 12.5835 16.9253C12.2313 16.6937 11.8365 16.5344 11.4222 16.4567C11.0079 16.3791 10.5823 16.3845 10.1701 16.4728L8.98437 16.7284C8.85829 16.7566 8.7481 16.8326 8.67696 16.9405C8.60583 17.0483 8.57937 17.1796 8.60309 17.3066L10.8405 27.7812C11.0659 29.5552 11.9309 31.1861 13.2731 32.3678C14.6153 33.5496 16.3425 34.2011 18.1308 34.2001H23.0371C24.004 34.2006 24.9616 34.0106 25.855 33.6408C26.7483 33.2711 27.5601 32.7289 28.2438 32.0451C28.9275 31.3614 29.4697 30.5497 29.8395 29.6563C30.2092 28.7629 30.3993 27.8054 30.3987 26.8385V16.0412C30.3976 15.3915 30.139 14.7687 29.6796 14.3093C29.2202 13.8499 28.5974 13.5913 27.9477 13.5902ZM29.4183 26.8427C29.4194 27.6808 29.2551 28.5108 28.9347 29.2853C28.6144 30.0598 28.1443 30.7634 27.5515 31.3558C26.9587 31.9483 26.2548 32.4179 25.4801 32.7377C24.7054 33.0575 23.8753 33.2213 23.0371 33.2196H18.1308C16.5767 33.2217 15.0753 32.6562 13.9087 31.6293C12.7422 30.6024 11.9908 29.1848 11.7958 27.643L9.6715 17.5873L10.388 17.4407C10.6726 17.3776 10.967 17.3719 11.2539 17.424C11.5408 17.4762 11.8144 17.585 12.0586 17.7442C12.3029 17.9034 12.5129 18.1098 12.6764 18.3512C12.8399 18.5926 12.9536 18.8642 13.0108 19.1501L13.2748 20.4071L13.7231 22.9922C13.7453 23.1115 13.811 23.2183 13.9074 23.292C14.0038 23.3657 14.1241 23.401 14.245 23.3911C14.366 23.3812 14.479 23.3268 14.5621 23.2384C14.6453 23.15 14.6927 23.0339 14.6952 22.9126V7.20903C14.7231 6.83924 14.8898 6.49367 15.1617 6.24153C15.4336 5.98942 15.7908 5.84931 16.1616 5.84931C16.5324 5.84931 16.8896 5.98942 17.1615 6.24153C17.4334 6.49367 17.6001 6.83924 17.628 7.20903V18.9867C17.628 19.1167 17.6797 19.2414 17.7716 19.3333C17.8635 19.4253 17.9883 19.4769 18.1182 19.4769C18.1828 19.4775 18.2468 19.4652 18.3065 19.4407C18.3663 19.4163 18.4205 19.3802 18.4662 19.3346C18.5118 19.2889 18.5479 19.2347 18.5723 19.175C18.5967 19.1152 18.609 19.0512 18.6085 18.9867V13.1C18.6364 12.7302 18.8031 12.3846 19.075 12.1325C19.3469 11.8804 19.7041 11.7402 20.0749 11.7402C20.4458 11.7402 20.8029 11.8804 21.0748 12.1325C21.3468 12.3846 21.5134 12.7302 21.5414 13.1V18.9867C21.5414 19.1167 21.593 19.2414 21.6849 19.3333C21.7769 19.4253 21.9016 19.4769 22.0316 19.4769C22.0961 19.4775 22.1601 19.4652 22.2198 19.4407C22.2796 19.4163 22.3338 19.3802 22.3795 19.3346C22.4251 19.2889 22.4612 19.2347 22.4856 19.175C22.5101 19.1152 22.5223 19.0512 22.5218 18.9867V14.0804C22.5498 13.7106 22.7164 13.365 22.9883 13.1129C23.2603 12.8608 23.6174 12.7207 23.9883 12.7207C24.3591 12.7207 24.7162 12.8608 24.9882 13.1129C25.2601 13.365 25.4267 13.7106 25.4547 14.0804V18.9867C25.4547 19.1167 25.5063 19.2414 25.5983 19.3333C25.6902 19.4253 25.8149 19.4769 25.9449 19.4769C26.0115 19.481 26.0782 19.4712 26.1409 19.4483C26.2036 19.4254 26.2609 19.3899 26.3093 19.3439C26.3576 19.2979 26.3959 19.2425 26.4219 19.181C26.4479 19.1196 26.461 19.0534 26.4603 18.9867V16.0538C26.445 15.8519 26.4716 15.649 26.5384 15.4579C26.6051 15.2667 26.7107 15.0914 26.8483 14.9429C26.986 14.7945 27.1528 14.676 27.3384 14.595C27.5239 14.514 27.7242 14.4722 27.9267 14.4722C28.1292 14.4722 28.3295 14.514 28.515 14.595C28.7006 14.676 28.8674 14.7945 29.0051 14.9429C29.1428 15.0914 29.2483 15.2667 29.3151 15.4579C29.3819 15.649 29.4084 15.8519 29.3932 16.0538L29.4183 26.8427Z" fill="#959595"/>
<path d="M13.124 4.26353C13.124 4.39353 13.0723 4.51823 12.9804 4.61017C12.8885 4.70208 12.7638 4.75374 12.6338 4.75374H7.42996L8.55704 5.88083C8.6258 5.94912 8.67278 6.03628 8.69201 6.13128C8.71123 6.22628 8.70187 6.32485 8.66512 6.41453C8.62836 6.50421 8.56583 6.58099 8.48544 6.63514C8.40505 6.68928 8.31041 6.71841 8.21346 6.7188C8.08138 6.71848 7.95476 6.6657 7.86152 6.57214L5.90068 4.59873C5.8106 4.50703 5.76013 4.38366 5.76013 4.25514C5.76013 4.12662 5.8106 4.00325 5.90068 3.91159L7.8657 1.94654C7.91099 1.90017 7.96506 1.86332 8.02478 1.83817C8.08451 1.81301 8.14866 1.80005 8.21346 1.80005C8.2783 1.80005 8.34241 1.81301 8.40214 1.83817C8.46186 1.86332 8.51597 1.90017 8.56122 1.94654C8.60788 1.99078 8.64503 2.04405 8.67044 2.10312C8.69582 2.16219 8.70893 2.22581 8.70893 2.29011C8.70893 2.3544 8.69582 2.41802 8.67044 2.47709C8.64503 2.53616 8.60788 2.58944 8.56122 2.63368L7.42996 3.76075H12.6338C12.6992 3.76072 12.764 3.77382 12.8243 3.79924C12.8846 3.82465 12.9393 3.86188 12.9849 3.90875C13.0306 3.95559 13.0664 4.01113 13.0903 4.07208C13.1142 4.13299 13.1257 4.19812 13.124 4.26353Z" fill="#333333"/>
<path d="M26.2298 4.59859L24.2647 6.56365C24.2202 6.60991 24.1669 6.64674 24.1079 6.67194C24.0489 6.69714 23.9853 6.71017 23.9212 6.71028C23.789 6.70996 23.6625 6.65722 23.5692 6.56365C23.4792 6.47196 23.4287 6.34859 23.4287 6.22007C23.4287 6.09155 23.4792 5.96818 23.5692 5.87652L24.6963 4.74943H19.5051C19.375 4.74943 19.2504 4.69777 19.1584 4.60587C19.0665 4.51392 19.0148 4.38922 19.0148 4.25922C19.0148 4.12919 19.0665 4.00452 19.1584 3.91258C19.2504 3.82067 19.375 3.76901 19.5051 3.76901H24.6963L23.5692 2.64613C23.4792 2.55445 23.4287 2.43108 23.4287 2.30256C23.4287 2.17404 23.4792 2.05066 23.5692 1.95899C23.6145 1.91262 23.6686 1.87577 23.7283 1.85062C23.788 1.82546 23.8522 1.8125 23.917 1.8125C23.9818 1.8125 24.0459 1.82546 24.1057 1.85062C24.1654 1.87577 24.2195 1.91262 24.2647 1.95899L26.2298 3.92403C26.2745 3.96809 26.31 4.02058 26.3342 4.0785C26.3585 4.13639 26.371 4.19853 26.371 4.26131C26.371 4.32409 26.3585 4.38623 26.3342 4.44415C26.31 4.50204 26.2745 4.55453 26.2298 4.59859Z" fill="#333333"/>
</svg>
