<svg width="221" height="182" viewBox="0 0 221 182" fill="none" xmlns="http://www.w3.org/2000/svg">
<path d="M69.7342 124.97C71.6279 124.707 73.7257 124.176 75.5542 123.443C75.7909 123.41 76.0276 123.377 76.297 123.58C94.9806 138.249 116.023 147.317 125.198 150.839C139.614 139.968 189.187 99.0441 182.855 53.4109C180.342 35.2988 163.389 26.1432 148.949 28.1469C143.031 28.968 137.815 31.3701 133.709 34.8168C133.505 35.0849 133.031 35.1506 132.729 34.713C130.477 32.3883 127.106 30.6983 122.82 29.375C122.077 29.2383 121.269 28.6312 120.698 27.9912C119.286 26.5089 117.874 25.0265 116.462 23.5442C116.192 23.3418 116.127 22.8714 116.331 22.6033C123.907 14.5994 134.241 9.08964 146.077 7.44729C179.69 2.78301 201.255 22.5671 205.041 49.8529C214.572 118.538 139.082 165.695 133.825 169.541C132.062 170.745 130.233 171.478 128.103 171.774C125.972 172.069 124.013 171.861 121.989 171.183C115.884 168.914 93.7551 160.716 72.133 145.735C62.7708 139.122 54.3228 132.143 47.4992 124.699C47.1972 124.261 47.336 123.522 47.8094 123.457C49.7032 123.194 51.5643 122.696 53.4254 122.198C54.3722 122.067 55.3517 122.17 56.3639 122.509C60.5757 125.042 65.2365 125.594 69.7342 124.97Z" fill="#D8ECFA"/>
<path d="M16.793 97.8805C17.6077 96.802 14.4143 92.9008 13.4812 89.6513C7.31082 69.5095 12.0217 47.8578 25.5245 32.2268C25.7282 31.9572 26.8452 31.3195 27.4826 32.4378L38.4824 43.9447C39.054 44.5895 39.9345 43.9846 39.5994 43.307L33.7315 32.2948L30.8139 26.9071L30.1766 25.7888C29.8743 25.348 30.0123 24.6048 30.4525 24.3023C33.8759 21.1724 37.838 18.4504 42.1024 16.1692C46.3669 13.8879 50.9664 12.2843 55.3951 11.187C55.8682 11.1214 56.6107 11.2597 56.6764 11.7333L57.3138 12.8516L60.2642 18.4762L66.395 31.3827C66.7301 32.0603 67.6435 31.6922 67.5449 30.9818L64.4038 13.5573C64.2066 12.1366 64.8834 11.8013 65.3565 11.7356C85.5617 9.65603 105.557 18.2252 118.666 34.5079C120.985 37.3237 122.28 43.178 124.14 42.6786C125.795 42.4488 123.482 37.9427 123.482 37.9427C122.779 36.3507 123.693 35.9826 124.231 36.3906C127.031 37.4503 129.186 39.0821 130.461 41.3188C130.494 41.5556 132.774 45.8249 134.081 48.2984C139.312 58.1923 131.9 70.8058 118.614 82.7864C117.123 84.2001 116.17 86.0218 115.96 87.9818C115.263 93.3883 111.866 98.4454 106.721 101.332L74.5705 118.102C72.7767 119.075 70.6806 119.607 68.7883 119.87C65.24 120.362 61.5275 119.67 58.426 118.17C56.6059 117.216 54.6478 117.005 52.5189 117.3C49.9497 117.898 47.1439 118.529 44.5419 118.89C31.0586 120.761 20.1247 118.416 15.8338 110.081C14.5591 107.845 12.2461 103.339 12.2132 103.102C10.9384 100.865 11.0501 98.1947 11.6349 95.4586C11.8057 94.9522 12.5153 94.8538 12.8176 95.2945C13.7244 96.6168 15.7745 99.2286 16.793 97.8805Z" fill="#D8ECFA"/>
</svg>
