<svg width="24" height="24" viewBox="0 0 24 24" fill="none" xmlns="http://www.w3.org/2000/svg">
<path fill-rule="evenodd" clip-rule="evenodd" d="M12 0C5.37258 0 0 5.37258 0 12C0 18.6274 5.37258 24 12 24C18.6274 24 24 18.6274 24 12C24 5.37258 18.6274 0 12 0ZM9.36163 5.63859C10.0443 5.60753 10.2624 5.59993 12.0006 5.59993H11.9986C13.7373 5.59993 13.9546 5.60753 14.6373 5.63859C15.3186 5.66979 15.784 5.77766 16.192 5.93593C16.6133 6.09927 16.9693 6.31793 17.3253 6.67394C17.6813 7.02968 17.9 7.38675 18.064 7.80768C18.2213 8.21462 18.3293 8.67969 18.3613 9.36103C18.392 10.0437 18.4 10.2618 18.4 12C18.4 13.7381 18.392 13.9557 18.3613 14.6384C18.3293 15.3195 18.2213 15.7847 18.064 16.1918C17.9 16.6126 17.6813 16.9696 17.3253 17.3254C16.9697 17.6814 16.6132 17.9006 16.1924 18.0641C15.7852 18.2223 15.3196 18.3302 14.6382 18.3614C13.9555 18.3925 13.7381 18.4001 11.9998 18.4001C10.2618 18.4001 10.0438 18.3925 9.3611 18.3614C8.67989 18.3302 8.21469 18.2223 7.80748 18.0641C7.38681 17.9006 7.02974 17.6814 6.67414 17.3254C6.31827 16.9696 6.0996 16.6126 5.936 16.1916C5.77786 15.7847 5.67 15.3196 5.63866 14.6383C5.60773 13.9556 5.6 13.7381 5.6 12C5.6 10.2618 5.608 10.0436 5.63853 9.3609C5.6692 8.67983 5.7772 8.21462 5.93587 7.80755C6.09987 7.38675 6.31854 7.02968 6.67454 6.67394C7.03028 6.31807 7.38735 6.0994 7.80828 5.93593C8.21522 5.77766 8.68029 5.66979 9.36163 5.63859Z" fill="#18438B"/>
<path fill-rule="evenodd" clip-rule="evenodd" d="M11.4265 6.75355C11.538 6.75338 11.6579 6.75343 11.7873 6.75349L12.0006 6.75355C13.7094 6.75355 13.912 6.75969 14.5868 6.79035C15.2108 6.81889 15.5495 6.92315 15.7751 7.01076C16.0737 7.12676 16.2867 7.26543 16.5105 7.48943C16.7345 7.71343 16.8732 7.92677 16.9895 8.22544C17.0771 8.45077 17.1815 8.78944 17.2099 9.41345C17.2405 10.0881 17.2472 10.2908 17.2472 11.9988C17.2472 13.7068 17.2405 13.9095 17.2099 14.5842C17.1813 15.2082 17.0771 15.5468 16.9895 15.7722C16.8735 16.0709 16.7345 16.2835 16.5105 16.5074C16.2865 16.7314 16.0739 16.8701 15.7751 16.9861C15.5497 17.0741 15.2108 17.1781 14.5868 17.2066C13.9121 17.2373 13.7094 17.2439 12.0006 17.2439C10.2917 17.2439 10.0891 17.2373 9.41447 17.2066C8.79046 17.1778 8.45179 17.0735 8.22605 16.9859C7.92738 16.8699 7.71405 16.7313 7.49005 16.5073C7.26604 16.2833 7.12738 16.0705 7.01111 15.7716C6.92351 15.5463 6.81911 15.2076 6.79071 14.5836C6.76004 13.909 6.75391 13.7063 6.75391 11.9972C6.75391 10.2881 6.76004 10.0865 6.79071 9.41185C6.81924 8.78784 6.92351 8.44917 7.01111 8.22357C7.12711 7.9249 7.26604 7.71156 7.49005 7.48756C7.71405 7.26356 7.92738 7.12489 8.22605 7.00862C8.45166 6.92062 8.79046 6.81662 9.41447 6.78795C10.0049 6.76129 10.2337 6.75329 11.4265 6.75195V6.75355ZM15.4169 7.81625C14.9929 7.81625 14.6489 8.15986 14.6489 8.58399C14.6489 9.008 14.9929 9.352 15.4169 9.352C15.8409 9.352 16.1849 9.008 16.1849 8.58399C16.1849 8.15999 15.8409 7.81599 15.4169 7.81599V7.81625ZM8.71393 12.0002C8.71393 10.1852 10.1855 8.71358 12.0005 8.71351C13.8156 8.71351 15.2868 10.1851 15.2868 12.0002C15.2868 13.8153 13.8157 15.2862 12.0006 15.2862C10.1855 15.2862 8.71393 13.8153 8.71393 12.0002Z" fill="#18438B"/>
<path d="M12.0005 9.8667C13.1787 9.8667 14.1339 10.8218 14.1339 12.0001C14.1339 13.1782 13.1787 14.1334 12.0005 14.1334C10.8223 14.1334 9.86719 13.1782 9.86719 12.0001C9.86719 10.8218 10.8223 9.8667 12.0005 9.8667Z" fill="#18438B"/>
</svg>
