<svg width="22" height="22" viewBox="0 0 22 22" fill="none" xmlns="http://www.w3.org/2000/svg">
<g clip-path="url(#clip0)">
<path d="M21.9941 10.7691C21.0933 9.41294 19.9196 8.25958 18.548 7.38266C18.7136 6.6369 18.5075 5.85711 17.9951 5.29051C17.4827 4.72392 16.7274 4.4408 15.9688 4.53091C15.7637 3.16312 15.3191 1.84217 14.6555 0.628662C18.971 2.15582 21.8923 6.19254 21.9941 10.7691Z" fill="#759AD9"/>
<path d="M4.32372 17.2771C3.46654 17.2823 2.61184 17.1844 1.77801 16.9856C1.58761 16.6931 1.41095 16.3919 1.24805 16.082C1.46819 14.0462 2.25793 12.1136 3.52662 10.5062C3.76987 10.6641 4.0409 10.7744 4.32529 10.8311C4.35169 12.3955 4.69237 13.9386 5.32708 15.3686C4.69692 15.7991 4.3211 16.5139 4.32372 17.2771Z" fill="#759AD9"/>
<path d="M12.7324 0.137573C13.0074 0.181573 13.2796 0.237359 13.5479 0.301395C14.4203 1.64728 14.9868 3.16816 15.2074 4.75679C14.7924 4.96156 14.4465 5.28331 14.2123 5.68236C11.5865 5.21492 8.8798 5.65845 6.54054 6.9395C6.36511 6.74509 6.15819 6.5816 5.92847 6.45589C7.15855 3.45283 9.6466 1.14234 12.7324 0.137573Z" fill="#759AD9"/>
<path d="M5.38211 7.06209C6.18784 7.38444 6.57973 8.29891 6.25745 9.10467C5.93517 9.91043 5.02075 10.3024 4.21496 9.98019C3.40917 9.65798 3.01712 8.74359 3.33926 7.93777C3.66248 7.13273 4.5762 6.74107 5.38211 7.06209Z" fill="#759AD9"/>
<path d="M6.67852 15.7144C7.47224 15.7112 8.14368 16.3005 8.24364 17.0879C8.34361 17.8753 7.8407 18.6136 7.07137 18.8089C6.48259 18.9584 5.86039 18.7551 5.47342 18.2868C5.08645 17.8186 5.00401 17.1692 5.2617 16.6192C5.5194 16.0691 6.07106 15.7168 6.67852 15.7144Z" fill="#759AD9"/>
<path d="M8.82595 16.3177C8.34784 15.2524 7.15795 14.7023 6.03666 15.028C5.45557 13.7116 5.14099 12.2932 5.11108 10.8546C5.84012 10.7582 6.48212 10.3264 6.84631 9.68756C7.21051 9.04869 7.25499 8.27627 6.96655 7.59982C9.09547 6.44937 11.5462 6.03855 13.9339 6.43186C13.7475 7.38947 14.1753 8.36215 15.0072 8.87189C14.2147 12.179 11.9307 14.9302 8.82595 16.3177Z" fill="#759AD9"/>
<path d="M15.0125 7.84105C14.7302 7.48048 14.6186 7.015 14.7067 6.56562C14.7948 6.11623 15.0739 5.72733 15.4714 5.50001C15.7623 5.33239 16.1002 5.26515 16.4331 5.30869C17.2949 5.41111 17.9105 6.19275 17.8081 7.05455C17.7494 7.60407 17.3997 8.07958 16.8927 8.29952C16.2354 8.59998 15.4578 8.41037 15.0125 7.84105Z" fill="#759AD9"/>
<path d="M10.9772 0C8.34903 1.28143 6.28662 3.48821 5.18567 6.19693C4.22824 6.04031 3.27263 6.48631 2.77775 7.32076C2.28286 8.15521 2.34979 9.20764 2.94639 9.97268C1.8271 11.3775 1.04732 13.0217 0.667815 14.7773C-0.557813 11.4077 -0.066286 7.65234 1.98528 4.71164C4.03685 1.77095 7.39159 0.0131058 10.9772 0V0Z" fill="#759AD9"/>
<path d="M2.45776 17.9207C3.11817 18.0292 3.78706 18.0778 4.45623 18.0656C4.69976 18.7662 5.2605 19.3101 5.96813 19.5322C6.67575 19.7543 7.44675 19.6284 8.04695 19.1927C9.3621 20.4261 10.9412 21.3432 12.6642 21.8743C8.80092 22.4663 4.9141 20.9607 2.45776 17.9207Z" fill="#759AD9"/>
<path d="M14.3759 21.4681C12.2145 21.1181 10.2059 20.1335 8.60522 18.6395C8.92423 18.1882 9.0729 17.6383 9.0248 17.0877C12.3734 15.637 14.8564 12.7109 15.7427 9.17086C16.7142 9.38573 17.7157 8.9648 18.242 8.12036C19.8 9.14414 21.0703 10.5494 21.9321 12.2025C21.4517 16.507 18.4958 20.1316 14.3759 21.4681Z" fill="#759AD9"/>
</g>
<defs>
<clipPath id="clip0">
<rect width="22" height="22" fill="white"/>
</clipPath>
</defs>
</svg>
