<svg width="20" height="20" viewBox="0 0 20 20" fill="none" xmlns="http://www.w3.org/2000/svg">
<path opacity="0.15" d="M1.11108 5.11133C1.11108 2.90219 2.90195 1.11133 5.11108 1.11133H14.8889C17.098 1.11133 18.8889 2.90219 18.8889 5.11133V14.8891C18.8889 17.0982 17.098 18.8891 14.8889 18.8891H5.11109C2.90195 18.8891 1.11108 17.0982 1.11108 14.8891V5.11133Z" fill="#18438B"/>
<path fill-rule="evenodd" clip-rule="evenodd" d="M0.361084 5.55577C0.361084 2.68696 2.68672 0.361328 5.55553 0.361328H14.4444C17.3132 0.361328 19.6389 2.68696 19.6389 5.55577V14.4447C19.6389 17.3135 17.3132 19.6391 14.4444 19.6391H5.55553C2.68672 19.6391 0.361084 17.3135 0.361084 14.4447V5.55577ZM5.55553 1.86133C3.51514 1.86133 1.86108 3.51539 1.86108 5.55577V14.4447C1.86108 16.485 3.51514 18.1391 5.55553 18.1391H14.4444C16.4848 18.1391 18.1389 16.485 18.1389 14.4447V5.55577C18.1389 3.51539 16.4848 1.86133 14.4444 1.86133H5.55553ZM7.24742 3.91433C7.54032 3.62144 8.01519 3.62144 8.30808 3.91433L13.8636 9.46989C14.1565 9.76278 14.1565 10.2377 13.8636 10.5305L8.30808 16.0861C8.01519 16.379 7.54031 16.379 7.24742 16.0861C6.95453 15.7932 6.95453 15.3183 7.24742 15.0254L12.2726 10.0002L7.24742 4.97499C6.95453 4.6821 6.95453 4.20722 7.24742 3.91433Z" fill="#18438B"/>
</svg>
