<svg width="170" height="47" viewBox="0 0 170 47" fill="none" xmlns="http://www.w3.org/2000/svg">
<path d="M15.0242 31.5327C15.5487 31.5327 16.1387 31.4672 16.6631 31.3361C16.7287 31.3361 16.7942 31.3361 16.8598 31.4016C21.3832 36.1217 26.7588 39.3995 29.1189 40.7106C33.4456 38.2851 48.4581 28.976 48.4581 16.258C48.4581 11.2102 44.1969 8.06347 40.1979 8.06347C38.559 8.06347 37.0512 8.52237 35.8056 9.30905C35.7401 9.3746 35.609 9.3746 35.5434 9.24349C35.019 8.52237 34.1667 7.93236 33.0523 7.40791C32.8556 7.34235 32.6589 7.14568 32.5278 6.94901C32.2 6.49012 31.8722 6.03122 31.5445 5.57232C31.4789 5.50677 31.4789 5.37565 31.5445 5.3101C33.9045 3.40896 36.9201 2.29449 40.1979 2.29449C49.507 2.29449 54.6204 8.52237 54.6204 16.1269C54.6204 35.2695 32.3311 45.2996 30.7578 46.1518C30.2333 46.4141 29.7089 46.5452 29.1189 46.5452C28.5289 46.5452 28.0044 46.4141 27.48 46.1518C25.9066 45.2996 20.2032 42.2184 14.8931 37.3017C12.5986 35.1383 10.5664 32.9094 8.993 30.6149C8.92745 30.4838 8.993 30.2872 9.12412 30.2872C9.64857 30.2872 10.173 30.2216 10.6975 30.156C10.9597 30.156 11.2219 30.2216 11.4842 30.3527C12.5331 31.2049 13.7786 31.5327 15.0242 31.5327Z" fill="#E94732"/>
<path d="M1.58518 22.0926C1.84741 21.8303 1.12628 20.6503 0.995171 19.7325C0.077379 14.0291 2.17519 8.32568 6.43637 4.58896C6.50192 4.5234 6.82971 4.39229 6.96082 4.72007L9.51752 8.26013C9.64864 8.4568 9.91086 8.32568 9.84531 8.12901L8.66529 4.91674L8.07528 3.34339L7.94417 3.0156C7.87861 2.88449 7.94417 2.68782 8.07528 2.62226C9.12419 1.90114 10.3042 1.31113 11.5498 0.852235C12.7954 0.393339 14.1065 0.131113 15.3521 0C15.4832 0 15.6798 0.0655566 15.6798 0.19667L15.811 0.524453L16.401 2.16337L17.581 5.90009C17.6465 6.09676 17.9088 6.0312 17.9088 5.83453L17.7121 0.983349C17.7121 0.590009 17.9088 0.524453 18.0399 0.524453C23.6122 0.721122 28.7256 3.80228 31.6756 8.71902C32.2001 9.57126 32.3312 11.2102 32.8557 11.1446C33.3146 11.1446 32.8557 9.83349 32.8557 9.83349C32.7245 9.37459 32.9868 9.30903 33.1179 9.44015C33.839 9.83349 34.3635 10.3579 34.6257 11.0135C34.6257 11.0791 35.0846 12.3246 35.3468 13.0458C36.3957 15.9302 33.9046 19.077 29.8401 21.8303C29.3812 22.1581 29.0534 22.617 28.9223 23.1415C28.5289 24.5837 27.4145 25.8293 25.9067 26.4193L16.5321 29.7627C16.0076 29.9594 15.4176 30.0249 14.8932 30.0249C13.9098 30.0249 12.9265 29.6971 12.1398 29.1727C11.6809 28.8449 11.1564 28.7138 10.5664 28.7138C9.84531 28.7793 9.05863 28.8449 8.33751 28.8449C4.60078 28.8449 1.71629 27.796 0.864058 25.3704C0.601832 24.7148 0.142936 23.4037 0.142936 23.3381C-0.119291 22.6826 0.0118225 21.9615 0.274049 21.2403C0.339605 21.1092 0.536275 21.1092 0.601832 21.2403C0.798501 21.6337 1.2574 22.4203 1.58518 22.0926Z" fill="#173A86"/>
<path d="M75.8608 18.8147V30.2216H79.1386V34.6794H66.814V30.2216H70.1574V18.8147H66.814V14.4225H79.1386V18.8147H75.8608Z" fill="#173A86"/>
<path d="M81.9575 24.5182C81.9575 18.3559 86.6776 13.9636 93.1021 13.9636C96.8389 13.9636 99.8545 15.3403 101.821 17.7658L98.15 21.0437C96.9044 19.5359 95.3311 18.6836 93.3644 18.6836C90.021 18.6836 87.7265 20.9781 87.7265 24.4526C87.7265 27.9271 90.021 30.2216 93.3644 30.2216C95.3311 30.2216 96.8389 29.3694 98.15 27.8616L101.821 31.1394C99.8545 33.6305 96.8389 34.9417 93.1021 34.9417C86.6776 35.0728 81.9575 30.6805 81.9575 24.5182Z" fill="#173A86"/>
<path d="M103.853 24.5182C103.853 18.4214 108.639 13.9636 115.129 13.9636C121.619 13.9636 126.405 18.4214 126.405 24.5182C126.405 30.6149 121.619 35.0728 115.129 35.0728C108.639 35.0728 103.853 30.6149 103.853 24.5182ZM120.57 24.5182C120.57 21.0437 118.145 18.7492 115.064 18.7492C111.982 18.7492 109.622 21.0437 109.622 24.5182C109.622 27.9927 112.048 30.2871 115.064 30.2871C118.21 30.3527 120.57 28.0582 120.57 24.5182Z" fill="#173A86"/>
<path d="M129.158 32.8438L131.059 28.6482C132.829 29.8282 135.386 30.6149 137.746 30.6149C140.106 30.6149 141.024 29.9594 141.024 28.976C141.024 25.7637 129.486 28.1238 129.486 20.5848C129.486 16.9792 132.436 14.0291 138.467 14.0291C141.089 14.0291 143.843 14.6191 145.81 15.7991L144.04 20.0603C142.073 19.0114 140.172 18.487 138.402 18.487C135.976 18.487 135.124 19.2736 135.124 20.3225C135.124 23.4037 146.596 21.1092 146.596 28.5827C146.596 32.1227 143.646 35.1383 137.615 35.1383C134.337 35.0728 131.059 34.155 129.158 32.8438Z" fill="#173A86"/>
<path d="M170 14.4225V34.6794H164.297V26.7471H156.43V34.6794H150.726V14.4225H156.43V22.027H164.297V14.4225H170Z" fill="#173A86"/>
</svg>
