<svg width="56" height="40" viewBox="0 0 56 40" fill="none" xmlns="http://www.w3.org/2000/svg">
<rect x="0.5" y="0.5" width="55" height="38.0526" rx="3.5" fill="white" stroke="#F3F3F3"/>
<path fill-rule="evenodd" clip-rule="evenodd" d="M20.5174 30.1589V31.6008V33.0427H19.8925V32.6926C19.6942 32.9523 19.3934 33.1152 18.9846 33.1152C18.1786 33.1152 17.5468 32.482 17.5468 31.6008C17.5468 30.7204 18.1786 30.0864 18.9846 30.0864C19.3934 30.0864 19.6942 30.2494 19.8925 30.5091V30.1589H20.5174ZM19.0623 30.6776C18.5213 30.6776 18.1902 31.094 18.1902 31.6008C18.1902 32.1077 18.5213 32.5241 19.0623 32.5241C19.5792 32.5241 19.9282 32.1257 19.9282 31.6008C19.9282 31.076 19.5792 30.6776 19.0623 30.6776ZM41.6371 31.6008C41.6371 31.094 41.9681 30.6776 42.5091 30.6776C43.0267 30.6776 43.375 31.076 43.375 31.6008C43.375 32.1257 43.0267 32.5241 42.5091 32.5241C41.9681 32.5241 41.6371 32.1077 41.6371 31.6008ZM43.9648 29.0009V31.6008V33.0427H43.3391V32.6926C43.1409 32.9523 42.8401 33.1152 42.4312 33.1152C41.6252 33.1152 40.9934 32.482 40.9934 31.6008C40.9934 30.7204 41.6252 30.0864 42.4312 30.0864C42.8401 30.0864 43.1409 30.2494 43.3391 30.5091V29.0009H43.9648ZM28.2756 30.6478C28.6782 30.6478 28.937 30.9013 29.0031 31.3474L27.5116 31.3474C27.5783 30.931 27.8302 30.6478 28.2756 30.6478ZM26.8561 31.6008C26.8561 30.7017 27.4453 30.0864 28.2877 30.0864C29.093 30.0864 29.6464 30.7017 29.6526 31.6008C29.6526 31.6851 29.6464 31.7638 29.6402 31.8418L27.5058 31.8418C27.596 32.3611 27.9629 32.5483 28.3655 32.5483C28.6539 32.5483 28.9609 32.4392 29.2018 32.2465L29.5081 32.7113C29.1591 33.0068 28.7627 33.1152 28.3297 33.1152C27.4693 33.1152 26.8561 32.5179 26.8561 31.6008ZM35.834 31.6008C35.834 31.094 36.1651 30.6776 36.7061 30.6776C37.223 30.6776 37.5719 31.076 37.5719 31.6008C37.5719 32.1257 37.223 32.5241 36.7061 32.5241C36.1651 32.5241 35.834 32.1077 35.834 31.6008ZM38.1615 30.1589V31.6008V33.0427H37.5365V32.6926C37.3376 32.9523 37.0375 33.1152 36.6287 33.1152C35.8227 33.1152 35.1908 32.482 35.1908 31.6008C35.1908 30.7204 35.8227 30.0864 36.6287 30.0864C37.0375 30.0864 37.3376 30.2494 37.5365 30.5091V30.1589H38.1615ZM32.3046 31.6008C32.3046 32.4758 32.9117 33.1152 33.8382 33.1152C34.2711 33.1152 34.5595 33.0186 34.872 32.7713L34.5719 32.2645C34.3372 32.4337 34.0908 32.5241 33.8196 32.5241C33.3206 32.5179 32.9537 32.156 32.9537 31.6008C32.9537 31.0456 33.3206 30.6838 33.8196 30.6776C34.0908 30.6776 34.3372 30.768 34.5719 30.9372L34.872 30.4303C34.5595 30.1831 34.2711 30.0864 33.8382 30.0864C32.9117 30.0864 32.3046 30.7259 32.3046 31.6008ZM39.6046 30.5091C39.767 30.2556 40.0017 30.0864 40.3624 30.0864C40.489 30.0864 40.6693 30.1106 40.8077 30.1652L40.615 30.7563C40.4828 30.7017 40.3507 30.6838 40.224 30.6838C39.8152 30.6838 39.6108 30.9489 39.6108 31.4261V33.0427H38.9851V30.1589H39.6046V30.5091ZM23.6086 30.3882C23.3078 30.1893 22.8935 30.0864 22.4364 30.0864C21.7082 30.0864 21.2395 30.4366 21.2395 31.0097C21.2395 31.48 21.5884 31.77 22.2313 31.8605L22.5266 31.9026C22.8694 31.951 23.0311 32.0414 23.0311 32.2044C23.0311 32.4274 22.8026 32.5545 22.3759 32.5545C21.9429 32.5545 21.6304 32.4157 21.4198 32.2527L21.1252 32.741C21.468 32.9944 21.9009 33.1152 22.3697 33.1152C23.1997 33.1152 23.6809 32.723 23.6809 32.174C23.6809 31.6671 23.3023 31.402 22.6766 31.3115L22.382 31.2687C22.1115 31.2328 21.8947 31.1789 21.8947 30.9855C21.8947 30.7742 22.0992 30.6479 22.4419 30.6479C22.8088 30.6479 23.164 30.7867 23.3381 30.8951L23.6086 30.3882ZM30.9153 30.5091C31.0771 30.2556 31.3118 30.0864 31.6724 30.0864C31.7991 30.0864 31.9794 30.1106 32.1178 30.1652L31.9251 30.7563C31.7929 30.7017 31.6607 30.6838 31.5341 30.6838C31.1253 30.6838 30.9208 30.9489 30.9208 31.4261V33.0427H30.2959V30.1589H30.9153V30.5091ZM26.3388 30.1589H25.3166V29.284H24.6848V30.1589H24.1018V30.7321H24.6848V32.0476C24.6848 32.7168 24.9436 33.1152 25.6828 33.1152C25.954 33.1152 26.2665 33.031 26.4647 32.8922L26.2844 32.3549C26.0979 32.4633 25.8934 32.5179 25.731 32.5179C25.4185 32.5179 25.3166 32.3245 25.3166 32.0352V30.7321H26.3388V30.1589ZM16.9941 31.2328V33.0427H16.3623V31.4379C16.3623 30.9489 16.1578 30.6776 15.7311 30.6776C15.3161 30.6776 15.0277 30.9434 15.0277 31.4441V33.0427H14.3958V31.4379C14.3958 30.9489 14.1859 30.6776 13.7708 30.6776C13.3434 30.6776 13.0667 30.9434 13.0667 31.4441V33.0427H12.4355V30.1589H13.0612V30.5146C13.2959 30.1769 13.596 30.0864 13.903 30.0864C14.3421 30.0864 14.6546 30.2798 14.8528 30.5995C15.1178 30.1948 15.4964 30.0802 15.8632 30.0864C16.5612 30.0926 16.9941 30.5512 16.9941 31.2328Z" fill="#231F20"/>
<path d="M32.8727 25.2589H23.4004V8.17993H32.8727V25.2589Z" fill="#FF5F00"/>
<path d="M24.0015 16.7197C24.0015 13.2552 25.6183 10.1691 28.1361 8.18026C26.2949 6.72594 23.9712 5.8579 21.4459 5.8579C15.4674 5.8579 10.6211 10.7208 10.6211 16.7197C10.6211 22.7186 15.4674 27.5815 21.4459 27.5815C23.9712 27.5815 26.2949 26.7135 28.1361 25.2592C25.6183 23.2704 24.0015 20.1843 24.0015 16.7197Z" fill="#EB001B"/>
<path d="M45.6524 16.7197C45.6524 22.7186 40.8061 27.5815 34.8276 27.5815C32.3023 27.5815 29.9786 26.7135 28.1367 25.2592C30.6552 23.2704 32.272 20.1843 32.272 16.7197C32.272 13.2552 30.6552 10.1691 28.1367 8.18026C29.9786 6.72594 32.3023 5.8579 34.8276 5.8579C40.8061 5.8579 45.6524 10.7208 45.6524 16.7197Z" fill="#F79E1B"/>
</svg>
