<svg width="22" height="17" viewBox="0 0 22 17" fill="none" xmlns="http://www.w3.org/2000/svg">
<path d="M20.5215 1.81159V13.044H1.47827V1.81159C1.47885 1.49765 1.61116 1.19673 1.8462 0.974747C2.08125 0.752761 2.39987 0.627808 2.73227 0.627258H19.2675C19.5999 0.627808 19.9185 0.752761 20.1535 0.974747C20.3886 1.19673 20.5209 1.49765 20.5215 1.81159Z" fill="#759AD9"/>
<path d="M21.5601 13.5842H0.440108C0.396755 13.5842 0.353817 13.5922 0.313754 13.6078C0.27369 13.6235 0.237288 13.6464 0.206633 13.6754C0.175979 13.7043 0.151673 13.7387 0.135109 13.7766C0.118546 13.8144 0.11005 13.8549 0.110108 13.8959V14.3655C0.11127 14.8975 0.335548 15.4073 0.733849 15.7835C1.13215 16.1597 1.67203 16.3715 2.23531 16.3726H19.7649C20.3282 16.3715 20.8681 16.1597 21.2664 15.7835C21.6647 15.4073 21.8889 14.8975 21.8901 14.3655V13.8959C21.8902 13.8549 21.8817 13.8144 21.8651 13.7766C21.8485 13.7387 21.8242 13.7043 21.7936 13.6754C21.7629 13.6464 21.7265 13.6235 21.6865 13.6078C21.6464 13.5922 21.6035 13.5842 21.5601 13.5842ZM11.635 15.288H10.3643C10.2768 15.288 10.1929 15.2552 10.131 15.1967C10.0691 15.1383 10.0343 15.059 10.0343 14.9763C10.0343 14.8937 10.0691 14.8144 10.131 14.7559C10.1929 14.6975 10.2768 14.6647 10.3643 14.6647H11.635C11.7226 14.6647 11.8065 14.6975 11.8684 14.7559C11.9303 14.8144 11.965 14.8937 11.965 14.9763C11.965 15.059 11.9303 15.1383 11.8684 15.1967C11.8065 15.2552 11.7226 15.288 11.635 15.288Z" fill="#759AD9"/>
</svg>
