<svg width="15" height="26" viewBox="0 0 15 26" fill="none" xmlns="http://www.w3.org/2000/svg">
<path fill-rule="evenodd" clip-rule="evenodd" d="M14.8451 23.6365C14.8451 26 12.5612 26 12.5612 26H2.28386C2.28386 26 0 26 0 23.6365V2.36354C0 0 2.28386 0 2.28386 0H12.5612C12.5612 0 14.8451 0 14.8451 2.36354V23.6365ZM6.28079 23.8357C6.28079 24.487 6.79238 25.0157 7.42271 25.0157C8.05308 25.0157 8.56466 24.4871 8.56466 23.8357C8.56466 23.1844 8.05305 22.6557 7.42271 22.6557C6.79238 22.6557 6.28079 23.1843 6.28079 23.8357ZM4.56756 1.44092C4.56756 1.29461 4.68063 1.18014 4.81994 1.18014H10.0237C10.1631 1.18014 10.2772 1.29697 10.2772 1.44092V1.51055C10.2772 1.65805 10.1642 1.77134 10.0249 1.77134H4.81994C4.68177 1.77134 4.56756 1.6545 4.56756 1.51055V1.44092ZM13.7032 2.94997H1.14194V21.8299H13.7032V2.94997Z" fill="white"/>
</svg>
