<svg width="18" height="22" viewBox="0 0 18 22" fill="none" xmlns="http://www.w3.org/2000/svg">
<path d="M17.5543 2.61607L9.17985 0.0271992C9.06259 -0.00906641 8.93762 -0.00906641 8.82032 0.0271992L0.445722 2.61607C0.181183 2.69784 0 2.94877 0 3.2334V12.7259C0 13.9605 0.485085 15.2244 1.4417 16.4824C2.17231 17.4432 3.18314 18.408 4.446 19.35C6.56752 20.9324 8.65661 21.9032 8.74451 21.9437C8.82578 21.9812 8.91293 22 9.00008 22C9.08724 22 9.17439 21.9813 9.25566 21.9437C9.34352 21.9032 11.4326 20.9324 13.5541 19.35C14.8169 18.408 15.8277 17.4432 16.5584 16.4824C17.515 15.2245 18 13.9606 18 12.7259V3.2334C18 2.94877 17.8189 2.69784 17.5543 2.61607Z" fill="#759AD9"/>
</svg>
