<svg width="18" height="18" viewBox="0 0 18 18" fill="none" xmlns="http://www.w3.org/2000/svg">
<path opacity="0.15" d="M15.1579 8.05262C15.1579 11.9767 11.9768 15.1579 8.05265 15.1579C4.12852 15.1579 0.947388 11.9767 0.947388 8.05262C0.947388 4.12849 4.12852 0.947357 8.05265 0.947357C11.9768 0.947357 15.1579 4.12849 15.1579 8.05262Z" fill="#18438B"/>
<path fill-rule="evenodd" clip-rule="evenodd" d="M8.05264 1.56101C4.46741 1.56101 1.56101 4.46741 1.56101 8.05264C1.56101 11.6379 4.46741 14.5443 8.05264 14.5443C11.6379 14.5443 14.5443 11.6379 14.5443 8.05264C14.5443 4.46741 11.6379 1.56101 8.05264 1.56101ZM0.33374 8.05264C0.33374 3.78961 3.78961 0.33374 8.05264 0.33374C12.3157 0.33374 15.7715 3.78961 15.7715 8.05264C15.7715 9.96326 15.0774 11.7118 13.9275 13.0597L17.4865 16.6187C17.7262 16.8584 17.7262 17.2469 17.4865 17.4865C17.2469 17.7262 16.8584 17.7262 16.6187 17.4865L13.0597 13.9275C11.7118 15.0774 9.96326 15.7715 8.05264 15.7715C3.78961 15.7715 0.33374 12.3157 0.33374 8.05264Z" fill="#18438B"/>
</svg>
