<svg width="26" height="22" viewBox="0 0 26 22" fill="none" xmlns="http://www.w3.org/2000/svg">
<path fill-rule="evenodd" clip-rule="evenodd" d="M0.552304 9.35197L24.3314 0.085508C25.2364 -0.267176 26.1718 0.524958 25.973 1.47572L21.9132 20.8858C21.7227 21.7966 20.6544 22.2057 19.9042 21.6551L13.7744 17.1556L10.6502 20.3456C10.1019 20.9054 9.15475 20.6788 8.91919 19.9314L6.66411 12.7758L0.621592 10.9915C-0.171245 10.7574 -0.217905 9.65214 0.552304 9.35197ZM10.305 14.1604L21.3502 4.39312C21.6147 4.15935 21.3076 3.74643 21.0076 3.9326L7.96432 12.0222C7.73468 12.1646 7.6302 12.4442 7.71034 12.7023L9.45995 18.3401C9.49677 18.4585 9.66929 18.4422 9.68318 18.3189L10.1084 14.5386C10.1248 14.3926 10.1949 14.2578 10.305 14.1604Z" fill="white"/>
</svg>
