<svg width="24" height="24" viewBox="0 0 24 24" fill="none" xmlns="http://www.w3.org/2000/svg">
<path fill-rule="evenodd" clip-rule="evenodd" d="M12 0C5.37258 0 0 5.37258 0 12C0 18.6274 5.37258 24 12 24C18.6274 24 24 18.6274 24 12C24 5.37258 18.6274 0 12 0ZM11.6658 10.169L11.6406 9.75379C11.5651 8.67759 12.2282 7.6946 13.2774 7.31327C13.6635 7.17768 14.3182 7.16074 14.7463 7.27937C14.9142 7.33022 15.2331 7.4997 15.4598 7.65223L15.8711 7.93187L16.3243 7.78781C16.5761 7.71155 16.9119 7.58444 17.063 7.4997C17.2057 7.42343 17.3316 7.38106 17.3316 7.40648C17.3316 7.55054 17.021 8.04203 16.7608 8.3132C16.4083 8.69453 16.509 8.72843 17.2224 8.47421C17.6505 8.33015 17.6589 8.33015 17.575 8.49116C17.5246 8.5759 17.2644 8.87249 16.9874 9.14366C16.5174 9.60973 16.4922 9.66057 16.4922 10.0504C16.4922 10.652 16.2068 11.9062 15.9214 12.5926C15.3926 13.8806 14.2595 15.2111 13.1263 15.8805C11.5315 16.8211 9.40786 17.0584 7.61999 16.5076C7.02404 16.3212 6 15.8466 6 15.7619C6 15.7364 6.31057 15.7025 6.68829 15.6941C7.4773 15.6771 8.26631 15.4568 8.93781 15.067L9.39108 14.7958L8.87066 14.6179C8.13201 14.3637 7.46891 13.7789 7.30103 13.2281C7.25067 13.0502 7.26746 13.0417 7.73751 13.0417L8.22434 13.0332L7.81305 12.8383C7.32621 12.5926 6.88134 12.1774 6.66311 11.7537C6.50362 11.4486 6.30218 10.6775 6.36093 10.6181C6.37772 10.5927 6.55399 10.6436 6.75544 10.7114C7.33461 10.9232 7.41015 10.8724 7.0744 10.5164C6.44487 9.87242 6.25181 8.91486 6.55399 8.00814L6.69668 7.60139L7.25067 8.1522C8.38383 9.26229 9.71843 9.92327 11.2461 10.1182L11.6658 10.169Z" fill="#18438B"/>
</svg>
