<svg width="23" height="26" viewBox="0 0 23 26" fill="none" xmlns="http://www.w3.org/2000/svg">
<path fill-rule="evenodd" clip-rule="evenodd" d="M17.7253 0.615752C13.5488 -0.205251 9.31321 -0.205251 5.13576 0.615752C3.30865 1.03627 1.00999 3.31238 0.560592 5.14318C-0.186864 8.6856 -0.186864 12.2767 0.560592 15.8191C1.00999 17.6499 3.30865 19.926 5.13576 20.3465L5.13715 20.3468C5.21854 20.3633 5.27787 20.4361 5.27787 20.5219V25.7112C5.27787 25.9706 5.58424 26.0984 5.75864 25.9105L8.14404 23.3808L10.3867 21.0019C10.4201 20.9664 10.4662 20.9472 10.514 20.9486C12.9224 21.0175 15.3334 20.8165 17.7253 20.3466C19.5524 19.9261 21.852 17.65 22.3005 15.8192C23.0489 12.2767 23.0489 8.6857 22.3005 5.14328C21.8519 3.31238 19.5534 1.03627 17.7253 0.615752ZM17.7892 16.0833C17.4238 16.885 16.8921 17.552 16.1251 17.9778C15.977 18.06 15.8092 18.1041 15.6398 18.1486L15.6397 18.1486C15.5615 18.1692 15.4829 18.1899 15.4057 18.2144C15.3152 18.186 15.226 18.1606 15.1384 18.1357C14.9542 18.0832 14.777 18.0328 14.6086 17.9605C12.0325 16.8561 9.66168 15.4313 7.78372 13.2472C6.71579 12.0052 5.87983 10.6031 5.17335 9.11915C4.87292 8.48817 4.61485 7.83503 4.35723 7.18304L4.35722 7.18301L4.2681 6.95765C4.00556 6.29513 4.39221 5.61067 4.79925 5.11149C5.18119 4.64302 5.67267 4.28448 6.20493 4.02026C6.62037 3.814 7.03018 3.93291 7.33359 4.29678C7.98951 5.08346 8.59199 5.91037 9.07987 6.82225C9.37987 7.38312 9.29755 8.06872 8.75385 8.45042C8.64768 8.52497 8.54908 8.60991 8.45057 8.69478L8.45052 8.69482L8.45047 8.69486C8.42641 8.71559 8.40235 8.73632 8.37818 8.75689C8.27022 8.84872 8.16862 8.9415 8.09461 9.06584C7.95933 9.29326 7.95287 9.56169 8.03998 9.80904C8.71048 11.7131 9.84061 13.1936 11.6952 13.9911L11.7749 14.0256C12.0457 14.1437 12.3206 14.2636 12.6319 14.226C13.0024 14.1813 13.2108 13.8938 13.4205 13.6046C13.5348 13.4468 13.6495 13.2885 13.7911 13.1689C14.1833 12.8375 14.6845 12.8331 15.1069 13.1094C15.5295 13.3857 15.9391 13.6823 16.3463 13.9821L16.4286 14.0427C16.8005 14.3162 17.1691 14.5873 17.5125 14.8997C17.8667 15.2222 17.9888 15.6454 17.7892 16.0833ZM14.4264 9.8769C14.3656 9.87871 14.3028 9.88196 14.4627 9.879C14.4903 9.87709 14.4922 9.87624 14.4822 9.87604C14.6041 9.85955 14.7248 9.76877 14.7639 9.59437C14.7872 9.49053 14.7776 9.37624 14.7684 9.26732L14.7675 9.25653C14.6342 7.66725 13.7006 6.96935 12.3942 6.8719C12.1852 6.85626 11.999 7.01055 11.967 7.20822C11.9319 7.42543 12.0558 7.613 12.2798 7.66964C12.3765 7.69412 12.475 7.70341 12.5737 7.71271C12.6857 7.72326 12.7978 7.73383 12.9077 7.76661C13.0705 7.81505 13.2259 7.89038 13.363 7.99365C13.6534 8.2123 13.8369 8.54299 13.9217 8.89981C13.9587 9.05573 13.9756 9.21724 13.9925 9.37794L14.0008 9.45591C14.0285 9.71079 14.1687 9.86756 14.4264 9.8769ZM13.6507 6.24393C13.2499 6.04111 12.8163 5.91505 12.3769 5.83991C12.2574 5.81949 12.137 5.80406 12.0167 5.78863L12.0166 5.78862L12.0166 5.78861C11.9436 5.77926 11.8707 5.7699 11.7979 5.75943C11.564 5.72587 11.4393 5.57187 11.4503 5.33377C11.4606 5.11064 11.6184 4.95016 11.8537 4.96389C12.627 5.00928 13.3739 5.18197 14.0614 5.55814C15.4594 6.32317 16.258 7.53074 16.4911 9.14318C16.4948 9.16899 16.4993 9.19471 16.5039 9.22042C16.5122 9.26748 16.5205 9.3145 16.5239 9.36193C16.5332 9.48866 16.54 9.61554 16.5479 9.76216L16.5479 9.76226C16.5513 9.82499 16.5548 9.89135 16.5589 9.96285C16.5575 9.97387 16.5562 9.98866 16.5548 10.0062C16.5505 10.0578 16.5442 10.133 16.5258 10.2049C16.4364 10.5544 15.9235 10.5982 15.8054 10.2454C15.7705 10.1407 15.7652 10.0216 15.765 9.90888C15.7638 9.17141 15.6087 8.4347 15.2488 7.79306C14.8789 7.13378 14.3136 6.57939 13.6507 6.24393ZM17.5612 10.7467C17.5788 10.997 17.7003 11.2305 17.9704 11.2272C18.2319 11.2239 18.3691 10.986 18.3503 10.7357C18.3448 10.6624 18.3394 10.589 18.334 10.5156C18.2955 9.99289 18.2569 9.46848 18.1683 8.9542C17.5781 5.52885 14.8347 3.22415 11.4876 3.10544C11.8912 3.11814 14.5313 3.19323 11.4382 3.10363C11.4191 3.10354 11.3999 3.10322 11.3808 3.1029C11.3347 3.10212 11.2886 3.10135 11.2426 3.10391C11.0037 3.11717 10.792 3.32361 10.8367 3.58288C10.8871 3.875 11.1713 3.90461 11.4055 3.92902C11.4192 3.93045 11.4328 3.93186 11.4461 3.93331C11.5646 3.94615 11.6834 3.95676 11.8023 3.96738C12.0655 3.99088 12.3287 4.01438 12.5877 4.06213C15.086 4.5226 17.0876 6.66845 17.4364 9.26219C17.4891 9.65377 17.515 10.0493 17.541 10.4446C17.5476 10.5454 17.5542 10.6461 17.5612 10.7467Z" fill="white"/>
</svg>
