<svg width="27" height="30" viewBox="0 0 27 30" fill="none" xmlns="http://www.w3.org/2000/svg">
<path d="M2.25069 29.615L2.25099 29.6148L26.0008 15.8649C26.1523 15.777 26.2781 15.6509 26.3656 15.499C26.453 15.3472 26.499 15.1751 26.499 14.9999C26.499 14.8247 26.453 14.6526 26.3656 14.5008C26.2781 14.349 26.1523 14.2228 26.0008 14.1349L2.251 0.385041C2.251 0.38504 2.25099 0.385038 2.25099 0.385036C2.09902 0.297065 1.92657 0.250661 1.75098 0.250489C1.57538 0.250317 1.40284 0.296386 1.25069 0.384062C1.09855 0.471739 0.97218 0.597931 0.884287 0.749948C0.796404 0.901946 0.750089 1.07435 0.75 1.24993V28.7499C0.75 29.0152 0.855357 29.2695 1.04289 29.457C1.23042 29.6446 1.48475 29.7499 1.74994 29.7499L2.25069 29.615ZM2.25069 29.615C2.09861 29.7033 1.92587 29.7499 1.75 29.7499L2.25069 29.615Z" fill="white" stroke="#ACA9A9" stroke-width="0.5"/>
</svg>
