<svg width="56" height="40" viewBox="0 0 56 40" fill="none" xmlns="http://www.w3.org/2000/svg">
<rect x="0.5" y="0.5" width="55" height="38.0526" rx="3.5" fill="white" stroke="#F3F3F3"/>
<path d="M24.8631 26.7836H21.1348L23.4667 13.1145H27.1949L24.8631 26.7836Z" fill="#15195A"/>
<path d="M38.3793 13.4486C37.6439 13.1721 36.4775 12.8667 35.0353 12.8667C31.3534 12.8667 28.7607 14.7279 28.7448 17.3889C28.7142 19.3522 30.6011 20.4427 32.0124 21.0973C33.4548 21.7662 33.9451 22.2028 33.9451 22.7991C33.9304 23.7148 32.7796 24.1369 31.7061 24.1369C30.2176 24.1369 29.42 23.9193 28.208 23.4098L27.717 23.1914L27.1953 26.2598C28.0697 26.6375 29.6808 26.9726 31.3534 26.9873C35.2654 26.9873 37.8123 25.1549 37.8425 22.3192C37.8574 20.7631 36.861 19.5708 34.7129 18.5965C33.4089 17.9711 32.6103 17.5493 32.6103 16.9094C32.6256 16.3277 33.2858 15.7318 34.7578 15.7318C35.9698 15.7026 36.8604 15.9788 37.535 16.2552L37.8722 16.4003L38.3793 13.4486Z" fill="#15195A"/>
<path fill-rule="evenodd" clip-rule="evenodd" d="M45.053 13.1145H47.9369L50.9447 26.7834H47.4927C47.4927 26.7834 47.1548 25.2129 47.0478 24.733H42.2609C42.1225 25.0963 41.4784 26.7834 41.4784 26.7834H37.5664L43.1044 14.2486C43.4881 13.3615 44.1637 13.1145 45.053 13.1145ZM44.8235 18.1167C44.8235 18.1167 43.642 21.1559 43.335 21.9412H46.4339C46.2806 21.2578 45.5746 17.9858 45.5746 17.9858L45.314 16.808C45.2043 17.1113 45.0456 17.5283 44.9386 17.8095C44.866 18.0002 44.8172 18.1285 44.8235 18.1167Z" fill="#15195A"/>
<path fill-rule="evenodd" clip-rule="evenodd" d="M4.98129 13.1145H10.9798C11.7929 13.1433 12.4526 13.3905 12.6673 14.2635L13.9712 20.5451L13.9713 20.5457L14.3702 22.4355L18.0215 13.1145H21.9639L16.1036 26.7691H12.161L8.83787 14.8918C7.69136 14.2564 6.38288 13.7453 4.91992 13.3907L4.98129 13.1145Z" fill="#15195A"/>
</svg>
