<svg width="24" height="24" viewBox="0 0 24 24" fill="none" xmlns="http://www.w3.org/2000/svg">
<path fill-rule="evenodd" clip-rule="evenodd" d="M12 0C5.37258 0 0 5.37258 0 12C0 18.6274 5.37258 24 12 24C18.6274 24 24 18.6274 24 12C24 5.37258 18.6274 0 12 0ZM17.0008 7.87459C17.5516 8.02572 17.9853 8.47103 18.1325 9.03654C18.4 10.0614 18.4 12.1999 18.4 12.1999C18.4 12.1999 18.4 14.3383 18.1325 15.3633C17.9853 15.9288 17.5516 16.3741 17.0008 16.5253C16.0027 16.7999 12 16.7999 12 16.7999C12 16.7999 7.9973 16.7999 6.99912 16.5253C6.44836 16.3741 6.01461 15.9288 5.86741 15.3633C5.6 14.3383 5.6 12.1999 5.6 12.1999C5.6 12.1999 5.6 10.0614 5.86741 9.03654C6.01461 8.47103 6.44836 8.02572 6.99912 7.87459C7.9973 7.59993 12 7.59993 12 7.59993C12 7.59993 16.0027 7.59993 17.0008 7.87459Z" fill="#18438B"/>
<path d="M10.8 14.3999V10.3999L14 12.4L10.8 14.3999Z" fill="#18438B"/>
</svg>
