<svg width="52" height="34" viewBox="0 0 52 34" fill="none" xmlns="http://www.w3.org/2000/svg">
<rect width="52" height="34" rx="6" fill="#E3F3FE"/>
<g clip-path="url(#clip0)">
<path d="M34.3333 11.1668H30.1667V10.3334C30.1667 9.41425 29.4192 8.66675 28.5 8.66675H23.5C22.5808 8.66675 21.8333 9.41421 21.8333 10.3334V11.1668H17.6667C16.7475 11.1668 16 11.9143 16 12.8334V15.3334C16 16.2527 16.7475 17.0001 17.6667 17.0001H24.3334V16.5834C24.3334 16.3531 24.5197 16.1668 24.75 16.1668H27.25C27.4804 16.1668 27.6667 16.3531 27.6667 16.5834V17.0001H34.3334C35.2525 17.0001 36 16.2527 36 15.3334V12.8334C36 11.9143 35.2525 11.1668 34.3333 11.1668ZM28.5 11.1668H23.5V10.3334H28.5V11.1668Z" fill="#759AD9"/>
<path d="M35.7689 17.4498C35.6269 17.3794 35.4572 17.3957 35.3318 17.4909C35.0356 17.7151 34.6905 17.8335 34.3333 17.8335H27.6667V19.0835C27.6667 19.3138 27.4803 19.5002 27.25 19.5002H24.75C24.5197 19.5002 24.3333 19.3138 24.3333 19.0835V17.8335H17.6667C17.3094 17.8335 16.9644 17.7151 16.6681 17.4909C16.5424 17.3948 16.3731 17.3786 16.2311 17.4498C16.0895 17.5202 16 17.6646 16 17.8229V23.6668C16 24.586 16.7475 25.3335 17.6667 25.3335H34.3334C35.2525 25.3335 36 24.5861 36 23.6668V17.8229C36 17.6646 35.9105 17.5202 35.7689 17.4498Z" fill="#759AD9"/>
</g>
<defs>
<clipPath id="clip0">
<rect width="20" height="20" fill="white" transform="translate(16 7)"/>
</clipPath>
</defs>
</svg>
